# This file uses centimeters as units for non-parametric coordinates.

mtllib mountain03.mtl
g default
v -25.961212 0.089943 -9.512638
v -27.918911 0.089943 -9.932662
v -30.044498 0.089943 -11.538697
v -31.924175 0.089943 -9.485776
v -34.824837 0.089943 -9.944325
v -36.306786 0.089943 -8.864982
v -36.875889 0.089943 -5.879317
v -39.375736 0.089943 -4.742519
v -38.641113 0.089943 -2.123410
v -40.513577 0.089943 -0.063650
v -38.787144 0.089943 1.979896
v -38.233665 0.089943 3.939072
v -38.607929 0.089943 6.681905
v -35.993629 0.089942 7.248093
v -35.034668 0.089943 10.063263
v -33.430779 0.089943 10.798303
v -30.634476 0.089943 9.704115
v -28.508888 0.089943 11.310150
v -26.629213 0.089943 9.257229
v -23.663031 0.089943 10.472358
v -23.081724 0.089943 7.189924
v -21.677502 0.089942 5.650772
v -18.507282 0.089943 4.821197
v -19.912279 0.089943 1.894866
v -17.293915 0.089943 -0.168253
v -19.766247 0.089943 -2.208438
v -20.319723 0.089943 -4.167612
v -19.326056 0.089943 -7.361572
v -22.559761 0.089943 -7.476629
v -22.907576 0.089943 -10.754874
v -27.229486 13.737322 -5.335973
v -28.306219 13.737322 -5.566988
v -29.434675 14.408854 -5.741735
v -30.509115 13.737322 -5.321200
v -32.104477 13.737322 -5.573400
v -32.919548 13.737322 -4.979763
v -33.232555 13.737322 -3.337648
v -33.980118 14.394259 -2.419788
v -34.203430 13.737322 -1.271899
v -35.233284 13.737322 -0.139032
v -34.714981 13.909417 0.707522
v -34.355888 14.118608 1.089661
v -33.762581 15.241089 1.958257
v -32.747314 13.737322 3.882428
v -32.219887 13.737322 5.430772
v -30.756586 14.603169 4.754169
v -29.799780 13.737322 5.233241
v -28.630707 13.737322 6.116560
v -27.779047 13.773305 4.972533
v -25.965485 13.737322 5.655774
v -25.645765 13.737322 3.850435
v -24.873444 13.737322 3.003901
v -23.918690 15.122095 1.603028
v -23.821650 13.797717 0.325699
v -22.462471 13.737322 -0.196561
v -23.822254 13.737322 -1.318665
v -23.776524 13.769634 -2.650196
v -23.580147 13.737322 -4.152890
v -25.148916 13.809252 -4.434647
v -25.549986 13.737322 -6.019204
v -28.606209 31.242664 -0.563425
vt 0.311113 0.975274
vt 0.311569 0.975274
vt 0.311569 0.995845
vt 0.311113 0.995845
vt 0.312025 0.975274
vt 0.312025 0.995845
vt 0.312481 0.975274
vt 0.312481 0.995845
vt 0.312937 0.975274
vt 0.312937 0.995845
vt 0.313393 0.975274
vt 0.313393 0.995845
vt 0.313849 0.975274
vt 0.313849 0.995845
vt 0.314305 0.975274
vt 0.314305 0.995845
vt 0.314761 0.975274
vt 0.314761 0.995845
vt 0.315217 0.975274
vt 0.315217 0.995845
vt 0.315673 0.975274
vt 0.315673 0.995845
vt 0.316129 0.975274
vt 0.316129 0.995845
vt 0.316585 0.975274
vt 0.316585 0.995845
vt 0.317041 0.975274
vt 0.317041 0.995845
vt 0.317497 0.975274
vt 0.317497 0.995845
vt 0.317953 0.975274
vt 0.317953 0.995845
vt 0.318409 0.975274
vt 0.318409 0.995845
vt 0.318865 0.975274
vt 0.318865 0.995845
vt 0.319321 0.975274
vt 0.319321 0.995845
vt 0.319777 0.975274
vt 0.319777 0.995845
vt 0.320233 0.975274
vt 0.320233 0.995845
vt 0.320689 0.975274
vt 0.320689 0.995845
vt 0.321145 0.975274
vt 0.321145 0.995845
vt 0.321601 0.975274
vt 0.321601 0.995845
vt 0.322057 0.975274
vt 0.322057 0.995845
vt 0.322513 0.975274
vt 0.322513 0.995845
vt 0.322969 0.975274
vt 0.322969 0.995845
vt 0.323425 0.975274
vt 0.323425 0.995845
vt 0.323881 0.975274
vt 0.323881 0.995845
vt 0.324337 0.975274
vt 0.324337 0.995845
vt 0.324793 0.975274
vt 0.324793 0.995845
vt 0.379400 0.982408
vt 0.378853 0.984090
vt 0.371124 0.980311
vt 0.377969 0.985622
vt 0.376785 0.986936
vt 0.375354 0.987976
vt 0.373739 0.988695
vt 0.372009 0.989063
vt 0.370240 0.989063
vt 0.368510 0.988695
vt 0.366894 0.987976
vt 0.365464 0.986936
vt 0.364280 0.985622
vt 0.363396 0.984090
vt 0.362849 0.982408
vt 0.362664 0.980649
vt 0.362849 0.978890
vt 0.363396 0.977208
vt 0.364280 0.975676
vt 0.365464 0.974362
vt 0.366894 0.973322
vt 0.368510 0.972603
vt 0.370240 0.972235
vt 0.372009 0.972235
vt 0.373739 0.972603
vt 0.375354 0.973322
vt 0.376785 0.974362
vt 0.377969 0.975676
vt 0.378853 0.977208
vt 0.379400 0.978890
vt 0.379584 0.980649
vn -0.173442 0.273435 -0.946124
vn 0.384163 0.300314 -0.873058
vn 0.393084 0.299847 -0.869239
vn -0.135018 0.278470 -0.950907
vn 0.384163 0.300314 -0.873058
vn -0.105539 0.360788 -0.926657
vn -0.105674 0.360787 -0.926642
vn 0.393084 0.299847 -0.869239
vn -0.105539 0.360788 -0.926657
vn -0.253953 0.313520 -0.914994
vn -0.333131 0.315188 -0.888640
vn -0.105674 0.360787 -0.926642
vn -0.253953 0.313520 -0.914994
vn -0.159019 0.329741 -0.930583
vn -0.110821 0.323102 -0.939853
vn -0.333131 0.315188 -0.888640
vn -0.159019 0.329741 -0.930583
vn -0.831172 0.333046 -0.445234
vn -0.851892 0.327731 -0.408501
vn -0.110821 0.323102 -0.939853
vn -0.831172 0.333046 -0.445234
vn -0.786038 0.316971 -0.530730
vn -0.744134 0.317787 -0.587601
vn -0.851892 0.327731 -0.408501
vn -0.786038 0.316971 -0.530730
vn -0.844771 0.364044 -0.392217
vn -0.839777 0.363896 -0.402932
vn -0.744134 0.317787 -0.587601
vn -0.844771 0.364044 -0.392217
vn -0.906303 0.320232 -0.275801
vn -0.927867 0.323295 -0.185859
vn -0.839777 0.363896 -0.402932
vn -0.906303 0.320232 -0.275801
vn -0.930008 0.353200 -0.101665
vn -0.931345 0.353668 -0.086687
vn -0.927867 0.323295 -0.185859
vn -0.930008 0.353200 -0.101665
vn -0.825283 0.297538 0.479978
vn -0.842177 0.299551 0.448339
vn -0.931345 0.353668 -0.086687
vn -0.825283 0.297538 0.479978
vn -0.952243 0.291745 0.090096
vn -0.955813 0.288621 0.055846
vn -0.842177 0.299551 0.448339
vn -0.952243 0.291745 0.090096
vn -0.764638 0.371796 0.526399
vn -0.776657 0.370742 0.509269
vn -0.955813 0.288621 0.055846
vn -0.764638 0.371796 0.526399
vn -0.702484 0.346462 0.621675
vn -0.644187 0.352007 0.679054
vn -0.776657 0.370742 0.509269
vn -0.702484 0.346462 0.621675
vn -0.648715 0.376015 0.661650
vn -0.621447 0.379729 0.685281
vn -0.644187 0.352007 0.679054
vn -0.648715 0.376015 0.661650
vn 0.058254 0.348800 0.935385
vn 0.091430 0.343121 0.934831
vn -0.621447 0.379729 0.685281
vn 0.058254 0.348800 0.935385
vn -0.189752 0.330019 0.924706
vn -0.090311 0.331959 0.938961
vn 0.091430 0.343121 0.934831
vn -0.189752 0.330019 0.924706
vn 0.095494 0.358433 0.928659
vn 0.127875 0.357526 0.925107
vn -0.090311 0.331959 0.938961
vn 0.095494 0.358433 0.928659
vn 0.158154 0.305781 0.938874
vn 0.157841 0.305775 0.938929
vn 0.127875 0.357526 0.925107
vn 0.158154 0.305781 0.938874
vn 0.446649 0.361939 0.818233
vn 0.461837 0.361596 0.809911
vn 0.157841 0.305775 0.938929
vn 0.446649 0.361939 0.818233
vn 0.901481 0.254953 0.349757
vn 0.883714 0.261081 0.388440
vn 0.461837 0.361596 0.809911
vn 0.901481 0.254953 0.349757
vn 0.504315 0.297672 0.810591
vn 0.485926 0.297342 0.821866
vn 0.883714 0.261081 0.388440
vn 0.504315 0.297672 0.810591
vn 0.847546 0.357337 0.392398
vn 0.860351 0.356300 0.364481
vn 0.485926 0.297342 0.821866
vn 0.847546 0.357337 0.392398
vn 0.922113 0.290854 0.255169
vn 0.955410 0.285422 0.075665
vn 0.860351 0.356300 0.364481
vn 0.922113 0.290854 0.255169
vn 0.929425 0.368450 0.020344
vn 0.928036 0.368462 0.054642
vn 0.955410 0.285422 0.075665
vn 0.929425 0.368450 0.020344
vn 0.789394 0.263619 -0.554403
vn 0.809363 0.266548 -0.523340
vn 0.928036 0.368462 0.054642
vn 0.789394 0.263619 -0.554403
vn 0.964070 0.248313 0.094396
vn 0.965399 0.252061 0.066860
vn 0.809363 0.266548 -0.523340
vn 0.964070 0.248313 0.094396
vn 0.762143 0.347574 -0.546196
vn 0.762989 0.347560 -0.545023
vn 0.965399 0.252061 0.066860
vn 0.762143 0.347574 -0.546196
vn 0.660675 0.292578 -0.691308
vn 0.653588 0.292713 -0.697955
vn 0.762989 0.347560 -0.545023
vn 0.660675 0.292578 -0.691308
vn 0.432708 0.361453 -0.825903
vn 0.444524 0.361448 -0.819606
vn 0.653588 0.292713 -0.697955
vn 0.432708 0.361453 -0.825903
vn -0.173442 0.273435 -0.946124
vn -0.135018 0.278470 -0.950907
vn 0.444524 0.361448 -0.819606
vn 0.201847 0.272364 -0.940785
vn -0.172523 0.252717 -0.952035
vn 0.246061 0.277076 -0.928807
vn 0.246061 0.277076 -0.928807
vn 0.300606 0.266872 -0.915650
vn 0.052141 0.998126 0.032032
vn -0.108140 0.304840 -0.946244
vn -0.495601 0.277559 -0.823007
vn 0.052141 0.998126 0.032032
vn -0.054159 0.274149 -0.960161
vn 0.151429 0.243888 -0.957908
vn 0.052141 0.998126 0.032032
vn -0.162947 0.308959 -0.937013
vn -0.555851 0.329504 -0.763189
vn 0.052141 0.998126 0.032032
vn -0.835780 0.326068 -0.441760
vn -0.943624 0.277888 -0.179867
vn 0.052141 0.998126 0.032032
vn -0.876990 0.299314 -0.375899
vn -0.635216 0.281834 -0.719076
vn 0.052141 0.998126 0.032032
vn -0.858552 0.326435 -0.395385
vn -0.952314 0.304931 -0.010752
vn 0.052141 0.998126 0.032032
vn -0.834203 0.293440 -0.466902
vn -0.715469 0.255090 -0.650410
vn 0.052141 0.998126 0.032032
vn -0.897417 0.342093 -0.278593
vn -0.834204 0.326581 0.444352
vn 0.052141 0.998126 0.032032
vn -0.820269 0.332163 0.465647
vn -0.771625 0.312565 0.553983
vn 0.052141 0.998126 0.032032
vn -0.848247 0.333600 0.411325
vn -0.921893 0.329255 0.204219
vn 0.052141 0.998126 0.032032
vn -0.798766 0.345111 0.492819
vn -0.706401 0.326592 0.627961
vn 0.052141 0.998126 0.032032
vn -0.837223 0.319310 0.443959
vn -0.905204 0.292449 0.308348
vn 0.052141 0.998126 0.032032
vn -0.670909 0.368634 0.643421
vn 0.273957 0.260460 0.925801
vn 0.052141 0.998126 0.032032
vn 0.080528 0.301645 0.950014
vn -0.176254 0.320239 0.930796
vn 0.052141 0.998126 0.032032
vn -0.477993 0.312718 0.820811
vn -0.576569 0.291999 0.763089
vn 0.052141 0.998126 0.032032
vn 0.076593 0.363822 0.928314
vn 0.778610 0.222769 0.586635
vn 0.052141 0.998126 0.032032
vn 0.176253 0.312482 0.933429
vn -0.334734 0.270223 0.902736
vn 0.052141 0.998126 0.032032
vn 0.422681 0.367823 0.828280
vn 0.963562 0.205981 0.170644
vn 0.052141 0.998126 0.032032
vn 0.904332 0.247248 0.347925
vn 0.708583 0.282835 0.646463
vn 0.052141 0.998126 0.032032
vn 0.675059 0.289916 0.678413
vn 0.639781 0.282112 0.714908
vn 0.052141 0.998126 0.032032
vn 0.884237 0.312772 0.346842
vn 0.949599 0.250863 -0.187961
vn 0.052141 0.998126 0.032032
vn 0.664383 0.224550 0.712862
vn 0.360484 0.145825 0.921296
vn 0.052141 0.998126 0.032032
vn 0.939453 0.337449 -0.059637
vn 0.623239 0.202906 -0.755250
vn 0.052141 0.998126 0.032032
vn 0.843002 0.257612 -0.472211
vn 0.964307 0.261828 0.039472
vn 0.052141 0.998126 0.032032
vn 0.961146 0.262454 0.085537
vn 0.960470 0.251136 0.120117
vn 0.052141 0.998126 0.032032
vn 0.754741 0.340721 -0.560602
vn 0.182258 0.247455 -0.951603
vn 0.052141 0.998126 0.032032
vn 0.658898 0.292390 -0.693081
vn 0.938144 0.241207 -0.248404
vn 0.052141 0.998126 0.032032
vn 0.354855 0.342224 -0.870035
vn -0.172523 0.252717 -0.952035
vn 0.052141 0.998126 0.032032
s off
g polySurface1 pCylinder8
usemtl lambert2SG
f 1/1/1 2/2/2 32/3/3 31/4/4
f 2/2/5 3/5/6 33/6/7 32/3/8
f 3/5/9 4/7/10 34/8/11 33/6/12
f 4/7/13 5/9/14 35/10/15 34/8/16
f 5/9/17 6/11/18 36/12/19 35/10/20
f 6/11/21 7/13/22 37/14/23 36/12/24
f 7/13/25 8/15/26 38/16/27 37/14/28
f 8/15/29 9/17/30 39/18/31 38/16/32
f 9/17/33 10/19/34 40/20/35 39/18/36
f 10/19/37 11/21/38 41/22/39 40/20/40
f 11/21/41 12/23/42 42/24/43 41/22/44
f 12/23/45 13/25/46 43/26/47 42/24/48
f 13/25/49 14/27/50 44/28/51 43/26/52
f 14/27/53 15/29/54 45/30/55 44/28/56
f 15/29/57 16/31/58 46/32/59 45/30/60
f 16/31/61 17/33/62 47/34/63 46/32/64
f 17/33/65 18/35/66 48/36/67 47/34/68
f 18/35/69 19/37/70 49/38/71 48/36/72
f 19/37/73 20/39/74 50/40/75 49/38/76
f 20/39/77 21/41/78 51/42/79 50/40/80
f 21/41/81 22/43/82 52/44/83 51/42/84
f 22/43/85 23/45/86 53/46/87 52/44/88
f 23/45/89 24/47/90 54/48/91 53/46/92
f 24/47/93 25/49/94 55/50/95 54/48/96
f 25/49/97 26/51/98 56/52/99 55/50/100
f 26/51/101 27/53/102 57/54/103 56/52/104
f 27/53/105 28/55/106 58/56/107 57/54/108
f 28/55/109 29/57/110 59/58/111 58/56/112
f 29/57/113 30/59/114 60/60/115 59/58/116
f 30/59/117 1/61/118 31/62/119 60/60/120
f 61/65/121 31/63/122 32/64/123
f 32/64/124 33/66/125 61/65/126
f 33/66/127 34/67/128 61/65/129
f 34/67/130 35/68/131 61/65/132
f 35/68/133 36/69/134 61/65/135
f 36/69/136 37/70/137 61/65/138
f 37/70/139 38/71/140 61/65/141
f 38/71/142 39/72/143 61/65/144
f 39/72/145 40/73/146 61/65/147
f 40/73/148 41/74/149 61/65/150
f 41/74/151 42/75/152 61/65/153
f 42/75/154 43/76/155 61/65/156
f 43/76/157 44/77/158 61/65/159
f 44/77/160 45/78/161 61/65/162
f 45/78/163 46/79/164 61/65/165
f 46/79/166 47/80/167 61/65/168
f 47/80/169 48/81/170 61/65/171
f 48/81/172 49/82/173 61/65/174
f 49/82/175 50/83/176 61/65/177
f 50/83/178 51/84/179 61/65/180
f 51/84/181 52/85/182 61/65/183
f 52/85/184 53/86/185 61/65/186
f 53/86/187 54/87/188 61/65/189
f 54/87/190 55/88/191 61/65/192
f 55/88/193 56/89/194 61/65/195
f 56/89/196 57/90/197 61/65/198
f 57/90/199 58/91/200 61/65/201
f 58/91/202 59/92/203 61/65/204
f 59/92/205 60/93/206 61/65/207
f 60/93/208 31/63/209 61/65/210
