# This file uses centimeters as units for non-parametric coordinates.

mtllib tower.mtl
g default
v 1.089766 2.049352 0.419909
v 1.568275 2.049352 0.419909
v 1.089766 2.507184 0.419909
v 1.568275 2.507184 0.419909
v 1.089766 2.507184 -0.063667
v 1.568275 2.507184 -0.063667
v 1.089766 2.049352 -0.063667
v 1.568275 2.049352 -0.063667
vt 0.242709 0.980936
vt 0.240465 0.980936
vt 0.242709 0.978692
vt 0.240465 0.978692
vt 0.242709 0.976447
vt 0.240465 0.976447
vt 0.242709 0.974203
vt 0.240465 0.974203
vt 0.242709 0.971959
vt 0.240465 0.971959
vt 0.238221 0.980936
vt 0.238221 0.978692
vt 0.244953 0.980936
vt 0.244953 0.978692
vn 0.000000 0.000000 1.000000
vn 0.000000 0.000000 1.000000
vn 0.000000 0.000000 1.000000
vn 0.000000 0.000000 1.000000
vn 0.000000 1.000000 0.000000
vn 0.000000 1.000000 0.000000
vn 0.000000 1.000000 0.000000
vn 0.000000 1.000000 0.000000
vn 0.000000 0.000000 -1.000000
vn 0.000000 0.000000 -1.000000
vn 0.000000 0.000000 -1.000000
vn 0.000000 0.000000 -1.000000
vn 0.000000 -1.000000 0.000000
vn 0.000000 -1.000000 0.000000
vn 0.000000 -1.000000 0.000000
vn 0.000000 -1.000000 0.000000
vn 1.000000 0.000000 0.000000
vn 1.000000 0.000000 0.000000
vn 1.000000 0.000000 0.000000
vn 1.000000 0.000000 0.000000
vn -1.000000 0.000000 0.000000
vn -1.000000 0.000000 0.000000
vn -1.000000 0.000000 0.000000
vn -1.000000 0.000000 0.000000
s off
g pCube52
usemtl lambert4SG
f 1/1/1 2/2/2 4/4/3 3/3/4
f 3/3/5 4/4/6 6/6/7 5/5/8
f 5/5/9 6/6/10 8/8/11 7/7/12
f 7/7/13 8/8/14 2/10/15 1/9/16
f 2/2/17 8/11/18 6/12/19 4/4/20
f 7/13/21 1/1/22 3/3/23 5/14/24
g default
v -0.077107 -0.850665 0.475064
v 1.624224 -0.850665 0.475064
v -0.077107 -0.465235 0.475064
v 1.624224 -0.465235 0.475064
v -0.077107 -0.465235 -1.226262
v 1.624224 -0.465235 -1.226262
v -0.077107 -0.850665 -1.226262
v 1.624224 -0.850665 -1.226262
v 0.154159 1.403659 0.243804
v 1.392959 1.403659 0.243804
v 1.392959 1.403659 -0.995000
v 0.154159 1.403659 -0.995000
v -0.030746 1.542577 0.428714
v 1.577863 1.542577 0.428714
v 1.577863 1.542577 -1.179902
v -0.030746 1.542577 -1.179902
v -0.030746 2.081909 0.428714
v 1.577863 2.081909 0.428714
v 1.577863 2.081909 -1.179902
v -0.030746 2.081909 -1.179902
v 0.451835 2.081909 -0.053872
v 1.095278 2.081909 -0.053872
v 1.095278 2.081909 -0.697314
v 0.451835 2.081909 -0.697314
v 0.451835 1.949988 -0.053872
v 1.095278 1.949988 -0.053872
v 1.095278 1.949988 -0.697314
v 0.451835 1.949988 -0.697314
v 0.439727 0.147700 -1.131717
v 0.395061 0.193863 -1.128087
v 0.395061 0.193863 0.376899
v 0.439727 0.147700 0.380526
v 1.136823 0.193827 -1.128089
v 1.092120 0.147700 -1.131717
v 1.092120 0.147700 0.380526
v 1.164944 0.114054 0.385720
v 1.136823 0.193827 0.376906
v 1.065958 1.027413 -1.062593
v 1.112085 0.982709 -1.066104
v 1.112085 0.982709 0.314914
v 1.065958 1.027413 0.311396
v 0.421055 0.982746 -1.066102
v 0.467217 1.027413 -1.062593
v 0.467217 1.027413 0.311396
v 0.421055 0.982746 0.314910
vt 0.183594 0.972433
vt 0.183644 0.990155
vt 0.183611 0.978340
vt 0.233858 0.988977
vt 0.229279 0.993555
vt 0.233858 0.993555
vt 0.183628 0.984247
vt 0.184966 0.984244
vt 0.184949 0.978336
vt 0.229279 0.979819
vt 0.233858 0.979819
vt 0.233858 0.984398
vt 0.229279 0.984398
vt 0.229279 0.979819
vt 0.233858 0.979819
vt 0.233858 0.984398
vt 0.229279 0.984398
vt 0.229279 0.979819
vt 0.233858 0.979819
vt 0.233858 0.984398
vt 0.229279 0.984398
vt 0.229279 0.979819
vt 0.233858 0.979819
vt 0.233858 0.984398
vt 0.229279 0.984398
vt 0.229268 0.979092
vt 0.233782 0.984865
vt 0.229354 0.984846
vt 0.233858 0.979819
vt 0.233652 0.979933
vt 0.229480 0.984250
vt 0.233679 0.984251
vt 0.229467 0.979933
vt 0.230725 0.984398
vt 0.230609 0.979819
vt 0.232482 0.984398
vt 0.232366 0.979819
vt 0.232361 0.984398
vt 0.232482 0.979819
vt 0.230609 0.984398
vt 0.230731 0.979819
vt 0.087330 0.994354
vt 0.087446 0.989775
vt 0.089087 0.994354
vt 0.232558 0.979819
vt 0.089203 0.989775
vt 0.089203 0.994354
vt 0.089081 0.989775
vt 0.087451 0.994354
vt 0.087330 0.989775
vt 0.184999 0.996058
vt 0.184983 0.990151
vt 0.229279 0.988977
vt 0.183661 0.996062
vt 0.184933 0.972429
vt 0.087451 0.989775
vt 0.230609 0.979819
vt 0.087330 0.994354
vt 0.230731 0.984398
vt 0.089203 0.989775
vt 0.232361 0.979819
vt 0.089081 0.994354
vt 0.232482 0.984398
vt 0.089087 0.989775
vt 0.232482 0.979819
vt 0.089203 0.994354
vt 0.232366 0.984398
vt 0.087330 0.989775
vt 0.230725 0.979819
vt 0.087446 0.994354
vt 0.230609 0.984398
vn 0.000000 0.000000 1.000000
vn 0.000000 0.000000 1.000000
vn 0.000000 0.000000 1.000000
vn 0.000000 0.000000 1.000000
vn 0.000000 1.000000 0.000000
vn 0.000000 1.000000 0.000000
vn 0.000000 1.000000 0.000000
vn 0.000000 1.000000 0.000000
vn 0.000000 0.000000 -1.000000
vn 0.000000 0.000000 -1.000000
vn 0.000000 0.000000 -1.000000
vn 0.000000 0.000000 -1.000000
vn 0.000000 -1.000000 0.000000
vn 0.000000 -1.000000 0.000000
vn 0.000000 -1.000000 0.000000
vn 0.000000 -1.000000 0.000000
vn 1.000000 0.000000 0.000000
vn 1.000000 0.000000 0.000000
vn 1.000000 0.000000 0.000000
vn 1.000000 0.000000 0.000000
vn -1.000000 0.000000 0.000000
vn -1.000000 0.000000 0.000000
vn -1.000000 0.000000 0.000000
vn -1.000000 0.000000 0.000000
vn 0.992431 0.122808 0.000000
vn 0.992431 0.122808 0.000000
vn 0.992431 0.122808 0.000000
vn 0.992431 0.122808 0.000000
vn -0.000401 0.140768 -0.990042
vn -0.000396 0.140087 -0.990139
vn -0.002177 0.109798 -0.993952
vn -0.000115 0.109965 -0.993936
vn -0.992430 0.122808 0.000000
vn -0.992431 0.122808 0.000000
vn -0.992430 0.122808 0.000000
vn -0.992430 0.122808 0.000000
vn 0.000000 -0.799509 0.600654
vn 0.000000 -0.799509 0.600654
vn 0.000000 -0.799509 0.600654
vn 0.000000 -0.799509 0.600654
vn 0.600667 -0.799500 0.000000
vn 0.600667 -0.799500 0.000000
vn 0.600667 -0.799499 0.000000
vn 0.600667 -0.799500 0.000000
vn 0.000000 -0.799497 -0.600670
vn 0.000000 -0.799497 -0.600670
vn 0.000000 -0.799497 -0.600670
vn 0.000000 -0.799497 -0.600670
vn -0.600665 -0.799501 0.000000
vn -0.600665 -0.799501 0.000000
vn -0.600665 -0.799501 0.000000
vn -0.600665 -0.799501 0.000000
vn 0.000000 0.000000 1.000000
vn 0.000000 0.000000 1.000000
vn 0.000000 0.000000 1.000000
vn 0.000000 0.000000 1.000000
vn 1.000000 0.000000 0.000000
vn 1.000000 0.000000 0.000000
vn 1.000000 0.000000 0.000000
vn 1.000000 0.000000 0.000000
vn 0.000000 0.000000 -1.000000
vn 0.000000 0.000000 -1.000000
vn 0.000000 0.000000 -1.000000
vn 0.000000 0.000000 -1.000000
vn -1.000000 0.000000 0.000000
vn -1.000000 0.000000 0.000000
vn -1.000000 0.000000 0.000000
vn -1.000000 0.000000 0.000000
vn 0.002223 0.109812 0.993950
vn 0.000125 0.109982 0.993934
vn 0.000380 0.142410 0.989808
vn 0.000380 0.140977 0.990013
vn -0.001457 0.140064 0.990141
vn -0.002042 0.109287 0.994008
vn -0.003033 0.108872 0.994051
vn -0.001267 0.134224 0.990950
vn -0.000871 0.139800 0.990179
vn -0.000038 0.152357 0.988325
vn 0.001037 0.151577 0.988445
vn 0.000392 0.142409 -0.989808
vn 0.000148 0.109979 -0.993934
vn 0.002247 0.109810 -0.993950
vn 0.000392 0.140831 -0.990034
vn 0.001678 0.175406 -0.984495
vn -0.001713 0.175437 -0.984489
vn 0.000000 1.000000 0.000000
vn 0.000000 1.000000 0.000000
vn 0.000000 1.000000 0.000000
vn 0.000000 1.000000 0.000000
vn -0.999509 -0.031344 0.000000
vn -0.999509 -0.031344 0.000000
vn -0.999509 -0.031343 0.000000
vn -0.999509 -0.031344 0.000000
vn 0.999458 -0.032933 0.000000
vn 0.999458 -0.032933 0.000000
vn 0.999458 -0.032933 0.000000
vn 0.999458 -0.032933 0.000000
vn 0.000000 -1.000000 0.000000
vn 0.000000 -1.000000 0.000000
vn 0.000000 -1.000000 0.000000
vn 0.000000 -1.000000 0.000000
vn 0.000000 1.000000 -0.000000
vn 0.000000 1.000000 -0.000000
vn 0.000000 1.000000 -0.000000
vn 0.000000 1.000000 -0.000000
vn 0.000000 1.000000 0.000000
vn 0.000000 1.000000 0.000000
vn 0.000000 1.000000 0.000000
vn 0.000000 1.000000 0.000000
vn 0.000000 0.000000 -1.000000
vn 0.000000 0.000000 -1.000000
vn 0.000000 0.000000 -1.000000
vn 0.000000 0.000000 -1.000000
vn -1.000000 0.000000 0.000000
vn -1.000000 0.000000 0.000000
vn -1.000000 0.000000 0.000000
vn -1.000000 0.000000 0.000000
vn 0.000000 0.000000 1.000000
vn 0.000000 0.000000 1.000000
vn 0.000000 0.000000 1.000000
vn 0.000000 0.000000 1.000000
vn 1.000000 0.000000 0.000000
vn 1.000000 0.000000 0.000000
vn 1.000000 0.000000 0.000000
vn 1.000000 0.000000 0.000000
vn 0.001059 0.151576 -0.988445
vn -0.001043 0.151565 -0.988447
vn -0.001712 0.175439 0.984489
vn 0.001676 0.175408 0.984495
vn 0.718662 0.695360 0.000000
vn 0.718662 0.695360 0.000000
vn 0.718662 0.695360 0.000000
vn 0.718662 0.695360 0.000000
vn -0.718104 0.695936 0.000000
vn -0.718104 0.695936 0.000000
vn -0.718104 0.695936 0.000000
vn -0.718104 0.695936 0.000000
vn -0.695944 -0.718096 0.000000
vn -0.695944 -0.718096 0.000000
vn -0.695944 -0.718096 0.000000
vn -0.695944 -0.718096 0.000000
vn 0.695372 -0.718650 0.000000
vn 0.695372 -0.718650 0.000000
vn 0.695372 -0.718650 0.000000
vn 0.695372 -0.718650 0.000000
s off
g pasted__pCube1 group
usemtl lambert5SG
f 9/68/25 10/16/26 12/66/27 11/65/28
f 33/36/29 34/37/30 35/38/31 36/39/32
f 13/23/33 14/22/34 16/21/35 15/17/36
f 15/67/37 16/18/38 10/20/39 9/19/40
f 10/16/41 16/21/42 14/22/43 12/66/44
f 15/17/45 9/15/46 11/69/47 13/23/48
f 19/46/49 18/44/50 12/43/51 14/41/52
s 1
f 19/46/53 14/41/54 41/50/55 47/77/56
s off
f 11/40/57 17/47/58 20/45/59 13/42/60
f 17/47/61 18/44/62 22/25/63 21/24/64
f 18/44/65 19/46/66 23/26/67 22/25/68
f 24/27/69 23/26/70 19/46/71 20/45/72
f 20/45/73 17/47/74 21/24/75 24/27/76
f 21/24/77 22/25/78 26/29/79 25/28/80
f 22/25/81 23/26/82 27/30/83 26/29/84
f 28/31/85 27/30/86 23/26/87 24/27/88
f 24/27/89 21/24/90 25/28/91 28/31/92
s 2
f 39/49/93 53/71/94 17/47/95 11/40/96
f 18/44/97 48/53/98 45/79/99 44/59/100 12/43/101
f 11/40/96 12/43/101 44/59/100 43/51/102 40/83/103
s 1
f 20/45/104 50/54/105 38/85/106 13/42/107
f 20/45/104 19/46/53 46/52/108 51/73/109
s off
f 43/78/110 42/58/111 37/84/112 40/57/113
f 48/74/114 47/61/115 41/80/116 45/60/117
f 39/82/118 38/56/119 50/72/120 53/64/121
f 52/70/122 51/63/123 46/76/124 49/62/125
s 5
f 25/28/126 26/29/127 30/33/128 29/32/129
f 26/29/127 27/30/130 31/34/131 30/33/128
f 27/30/130 28/31/132 32/35/133 31/34/131
f 28/31/132 25/28/126 29/32/129 32/35/133
s off
f 29/32/134 30/33/135 34/37/136 33/36/137
f 30/33/138 31/34/139 35/38/140 34/37/141
f 31/34/142 32/35/143 36/39/144 35/38/145
f 32/35/146 29/32/147 33/36/148 36/39/149
s 1
f 13/42/107 37/48/150 42/81/151 14/41/54
s 2
f 17/47/95 52/55/152 49/75/153 18/44/97
s off
f 37/84/154 38/56/155 39/82/156 40/57/157
f 41/80/158 42/58/159 43/78/160 45/60/161
f 46/76/162 47/61/163 48/74/164 49/62/165
f 50/72/166 51/63/167 52/70/168 53/64/169
s 1
f 37/48/150 13/42/107 38/85/106
s 2
f 39/49/93 11/40/96 40/83/103
s 1
f 41/50/55 14/41/54 42/81/151
s 2
f 43/51/102 44/59/100 45/79/99
s 1
f 46/52/108 19/46/53 47/77/56
s 2
f 48/53/98 18/44/97 49/75/153
s 1
f 50/54/105 20/45/104 51/73/109
s 2
f 52/55/152 17/47/95 53/71/94
g default
v -0.024324 2.049352 0.416608
v 0.454185 2.049352 0.416608
v -0.024324 2.507184 0.416608
v 0.454185 2.507184 0.416608
v -0.024324 2.507184 -0.066969
v 0.454185 2.507184 -0.066969
v -0.024324 2.049352 -0.066969
v 0.454185 2.049352 -0.066969
vt 0.242709 0.980936
vt 0.240465 0.980936
vt 0.242709 0.978692
vt 0.240465 0.978692
vt 0.242709 0.976447
vt 0.240465 0.976447
vt 0.242709 0.974203
vt 0.240465 0.974203
vt 0.242709 0.971959
vt 0.240465 0.971959
vt 0.238221 0.980936
vt 0.238221 0.978692
vt 0.244953 0.980936
vt 0.244953 0.978692
vn 0.000000 0.000000 1.000000
vn 0.000000 0.000000 1.000000
vn 0.000000 0.000000 1.000000
vn 0.000000 0.000000 1.000000
vn 0.000000 1.000000 0.000000
vn 0.000000 1.000000 0.000000
vn 0.000000 1.000000 0.000000
vn 0.000000 1.000000 0.000000
vn 0.000000 0.000000 -1.000000
vn 0.000000 0.000000 -1.000000
vn 0.000000 0.000000 -1.000000
vn 0.000000 0.000000 -1.000000
vn 0.000000 -1.000000 0.000000
vn 0.000000 -1.000000 0.000000
vn 0.000000 -1.000000 0.000000
vn 0.000000 -1.000000 0.000000
vn 1.000000 0.000000 0.000000
vn 1.000000 0.000000 0.000000
vn 1.000000 0.000000 0.000000
vn 1.000000 0.000000 0.000000
vn -1.000000 0.000000 0.000000
vn -1.000000 0.000000 0.000000
vn -1.000000 0.000000 0.000000
vn -1.000000 0.000000 0.000000
s off
g pCube36
usemtl lambert4SG
f 54/86/170 55/87/171 57/89/172 56/88/173
f 56/88/174 57/89/175 59/91/176 58/90/177
f 58/90/178 59/91/179 61/93/180 60/92/181
f 60/92/182 61/93/183 55/95/184 54/94/185
f 55/87/186 61/96/187 59/97/188 57/89/189
f 60/98/190 54/86/191 56/88/192 58/99/193
g default
v 0.505708 1.379995 0.444618
v 0.984215 1.379995 0.444618
v 0.505708 2.114002 -0.090137
v 0.984215 2.114002 -0.090137
v 0.505708 2.080155 0.444618
v 0.505708 2.114002 0.410771
v 0.984215 2.114002 0.410771
v 0.984215 2.080155 0.444618
v 0.744961 1.379995 0.444618
v 0.744961 2.080155 0.444618
v 0.744961 2.114002 0.410771
v 0.744961 2.114002 -0.090137
v 0.505708 1.128665 0.444618
v 0.984215 1.128665 0.444618
v 0.505708 1.931321 -0.090137
v 0.744961 1.931321 -0.090137
v 0.984215 1.931321 -0.090137
vt 0.204057 0.973484
vt 0.206753 0.973484
vt 0.206753 0.984496
vt 0.204057 0.984496
vt 0.204057 0.985028
vt 0.206753 0.985028
vt 0.206753 0.985028
vt 0.204057 0.985028
vt 0.209450 0.973484
vt 0.209450 0.984496
vt 0.209450 0.985028
vt 0.209450 0.985028
vt 0.204057 0.969531
vt 0.209450 0.969531
vt 0.206753 0.982155
vt 0.204057 0.982155
vt 0.209450 0.982155
vn 0.000000 0.000000 1.000000
vn 0.000000 0.000000 1.000000
vn 0.000000 0.000000 1.000000
vn 0.000000 0.000000 1.000000
vn 0.000000 1.000000 0.000000
vn 0.000000 1.000000 0.000000
vn 0.000000 1.000000 0.000000
vn 0.000000 1.000000 0.000000
vn 0.000000 0.707111 0.707103
vn 0.000000 0.707111 0.707103
vn 0.000000 0.707112 0.707102
vn 0.000000 0.707112 0.707102
vn 0.000000 0.000000 1.000000
vn 0.000000 0.000000 1.000000
vn 0.000000 0.707112 0.707101
vn 0.000000 0.707112 0.707101
vn 0.000000 1.000000 0.000000
vn 0.000000 1.000000 0.000000
vn 0.000000 0.000000 1.000000
vn 0.000000 0.000000 1.000000
vn 0.000000 0.000000 -1.000000
vn 0.000000 0.000000 -1.000000
vn 0.000000 0.000000 -1.000000
vn 0.000000 0.000000 -1.000000
vn 0.000000 0.000000 -1.000000
vn 0.000000 0.000000 -1.000000
s 1
g pCube57
usemtl lambert4SG
f 62/100/194 70/101/195 71/102/196 66/103/197
s 2
f 67/104/198 72/105/199 73/106/200 64/107/201
s 3
f 67/104/202 66/103/203 71/102/204 72/105/205
s 1
f 71/102/196 70/101/195 63/108/206 69/109/207
s 3
f 72/105/205 71/102/204 69/109/208 68/110/209
s 2
f 73/106/200 72/105/199 68/110/210 65/111/211
s 1
f 70/101/195 62/100/194 74/112/212
f 63/108/206 70/101/195 75/113/213
s 4
f 64/107/214 73/106/215 77/114/216 76/115/217
f 73/106/215 65/111/218 78/116/219 77/114/216
g default
v 0.039164 0.639130 0.194131
v 0.039164 0.639130 0.371162
v 0.090635 0.989386 0.194131
v 0.090635 0.989386 0.371162
v 0.300342 0.989386 0.194131
v 0.300342 0.989386 0.371162
v 0.300299 0.639506 0.194131
v 0.300299 0.639506 0.371162
vt 0.077086 0.976466
vt 0.081503 0.976466
vt 0.077086 0.980882
vt 0.081503 0.980882
vt 0.077086 0.985299
vt 0.081503 0.985299
vt 0.077086 0.989715
vt 0.081503 0.989715
vt 0.077086 0.994131
vt 0.081503 0.994131
vt 0.085919 0.976466
vt 0.085919 0.980882
vn -0.989374 0.145392 0.000000
vn -0.989374 0.145392 0.000000
vn -0.989374 0.145392 0.000000
vn -0.989374 0.145392 0.000000
vn 0.000000 1.000000 0.000000
vn 0.000000 1.000000 0.000000
vn 0.000000 1.000000 0.000000
vn 0.000000 1.000000 0.000000
vn 1.000000 -0.000123 -0.000000
vn 1.000000 -0.000123 -0.000000
vn 1.000000 -0.000123 -0.000000
vn 1.000000 -0.000123 -0.000000
vn 0.001438 -0.999999 0.000000
vn 0.001438 -0.999999 0.000000
vn 0.001438 -0.999999 0.000000
vn 0.001438 -0.999999 0.000000
vn 0.000000 0.000000 1.000000
vn 0.000000 0.000000 1.000000
vn 0.000000 0.000000 1.000000
vn 0.000000 0.000000 1.000000
s off
g pCube55
usemtl lambert4SG
f 79/117/220 80/118/221 82/120/222 81/119/223
f 81/119/224 82/120/225 84/122/226 83/121/227
f 83/121/228 84/122/229 86/124/230 85/123/231
f 85/123/232 86/124/233 80/126/234 79/125/235
f 80/118/236 86/127/237 84/128/238 82/120/239
g default
v 1.207027 -0.212518 0.211782
v 1.207027 -0.212518 0.460478
v 1.207027 0.088124 0.211782
v 1.207027 0.088124 0.460478
v 1.586846 0.088124 0.211782
v 1.586846 0.088124 0.460478
v 1.635229 -0.257121 0.211782
v 1.635229 -0.257121 0.460478
vt 0.077086 0.976466
vt 0.081503 0.976466
vt 0.077086 0.980882
vt 0.081503 0.980882
vt 0.077086 0.985299
vt 0.081503 0.985299
vt 0.077086 0.989715
vt 0.081503 0.989715
vt 0.077086 0.994131
vt 0.081503 0.994131
vt 0.085919 0.976466
vt 0.085919 0.980882
vn -1.000000 0.000000 -0.000000
vn -1.000000 0.000000 -0.000000
vn -1.000000 0.000000 -0.000000
vn -1.000000 0.000000 -0.000000
vn 0.000000 1.000000 0.000000
vn 0.000000 1.000000 0.000000
vn 0.000000 1.000000 0.000000
vn 0.000000 1.000000 0.000000
vn 0.990323 0.138785 0.000000
vn 0.990323 0.138785 0.000000
vn 0.990323 0.138785 0.000000
vn 0.990323 0.138785 0.000000
vn -0.103603 -0.994619 -0.000000
vn -0.103603 -0.994619 -0.000000
vn -0.103603 -0.994619 -0.000000
vn -0.103603 -0.994619 -0.000000
vn -0.000000 -0.000000 1.000000
vn -0.000000 -0.000000 1.000000
vn -0.000000 -0.000000 1.000000
vn -0.000000 -0.000000 1.000000
s off
g pCube56
usemtl lambert4SG
f 87/129/240 88/130/241 90/132/242 89/131/243
f 89/131/244 90/132/245 92/134/246 91/133/247
f 91/133/248 92/134/249 94/136/250 93/135/251
f 93/135/252 94/136/253 88/138/254 87/137/255
f 88/130/256 94/139/257 92/140/258 90/132/259
g default
v -0.027611 2.049352 -0.692111
v 0.450898 2.049352 -0.692111
v -0.027611 2.507184 -0.692111
v 0.450898 2.507184 -0.692111
v -0.027611 2.507184 -1.175688
v 0.450898 2.507184 -1.175688
v -0.027611 2.049352 -1.175688
v 0.450898 2.049352 -1.175688
vt 0.242709 0.980936
vt 0.240465 0.980936
vt 0.242709 0.978692
vt 0.240465 0.978692
vt 0.242709 0.976447
vt 0.240465 0.976447
vt 0.242709 0.974203
vt 0.240465 0.974203
vt 0.242709 0.971959
vt 0.240465 0.971959
vt 0.238221 0.980936
vt 0.238221 0.978692
vt 0.244953 0.980936
vt 0.244953 0.978692
vn 0.000000 0.000000 1.000000
vn 0.000000 0.000000 1.000000
vn 0.000000 0.000000 1.000000
vn 0.000000 0.000000 1.000000
vn 0.000000 1.000000 0.000000
vn 0.000000 1.000000 0.000000
vn 0.000000 1.000000 0.000000
vn 0.000000 1.000000 0.000000
vn 0.000000 0.000000 -1.000000
vn 0.000000 0.000000 -1.000000
vn 0.000000 0.000000 -1.000000
vn 0.000000 0.000000 -1.000000
vn 0.000000 -1.000000 0.000000
vn 0.000000 -1.000000 0.000000
vn 0.000000 -1.000000 0.000000
vn 0.000000 -1.000000 0.000000
vn 1.000000 0.000000 0.000000
vn 1.000000 0.000000 0.000000
vn 1.000000 0.000000 0.000000
vn 1.000000 0.000000 0.000000
vn -1.000000 0.000000 0.000000
vn -1.000000 0.000000 0.000000
vn -1.000000 0.000000 0.000000
vn -1.000000 0.000000 0.000000
s off
g pCube54
usemtl lambert4SG
f 95/141/260 96/142/261 98/144/262 97/143/263
f 97/143/264 98/144/265 100/146/266 99/145/267
f 99/145/268 100/146/269 102/148/270 101/147/271
f 101/147/272 102/148/273 96/150/274 95/149/275
f 96/142/276 102/151/277 100/152/278 98/144/279
f 101/153/280 95/141/281 97/143/282 99/154/283
g default
v 1.084023 2.049352 -0.676695
v 1.562532 2.049352 -0.676695
v 1.084023 2.507184 -0.676695
v 1.562532 2.507184 -0.676695
v 1.084023 2.507184 -1.160272
v 1.562532 2.507184 -1.160272
v 1.084023 2.049352 -1.160272
v 1.562532 2.049352 -1.160272
vt 0.242709 0.980936
vt 0.240465 0.980936
vt 0.242709 0.978692
vt 0.240465 0.978692
vt 0.242709 0.976447
vt 0.240465 0.976447
vt 0.242709 0.974203
vt 0.240465 0.974203
vt 0.242709 0.971959
vt 0.240465 0.971959
vt 0.238221 0.980936
vt 0.238221 0.978692
vt 0.244953 0.980936
vt 0.244953 0.978692
vn 0.000000 0.000000 1.000000
vn 0.000000 0.000000 1.000000
vn 0.000000 0.000000 1.000000
vn 0.000000 0.000000 1.000000
vn 0.000000 1.000000 0.000000
vn 0.000000 1.000000 0.000000
vn 0.000000 1.000000 0.000000
vn 0.000000 1.000000 0.000000
vn 0.000000 0.000000 -1.000000
vn 0.000000 0.000000 -1.000000
vn 0.000000 0.000000 -1.000000
vn 0.000000 0.000000 -1.000000
vn 0.000000 -1.000000 0.000000
vn 0.000000 -1.000000 0.000000
vn 0.000000 -1.000000 0.000000
vn 0.000000 -1.000000 0.000000
vn 1.000000 0.000000 0.000000
vn 1.000000 0.000000 0.000000
vn 1.000000 0.000000 0.000000
vn 1.000000 0.000000 0.000000
vn -1.000000 0.000000 0.000000
vn -1.000000 0.000000 0.000000
vn -1.000000 0.000000 0.000000
vn -1.000000 0.000000 0.000000
s off
g pCube53
usemtl lambert4SG
f 103/155/284 104/156/285 106/158/286 105/157/287
f 105/157/288 106/158/289 108/160/290 107/159/291
f 107/159/292 108/160/293 110/162/294 109/161/295
f 109/161/296 110/162/297 104/164/298 103/163/299
f 104/156/300 110/165/301 108/166/302 106/158/303
f 109/167/304 103/155/305 105/157/306 107/168/307
