# This file uses centimeters as units for non-parametric coordinates.

mtllib wall01.mtl
g default
v 0.405850 2.202814 6.913407
v 0.582881 2.202814 6.913407
v 0.405850 2.416822 6.913407
v 0.582881 2.416822 6.913407
v 0.405850 2.416822 6.485704
v 0.582881 2.416822 6.485704
v 0.405850 2.203190 6.485747
v 0.582881 2.203190 6.485747
vt 0.077086 0.976466
vt 0.081503 0.976466
vt 0.077086 0.980882
vt 0.081503 0.980882
vt 0.077086 0.985299
vt 0.081503 0.985299
vt 0.077086 0.989715
vt 0.081503 0.989715
vt 0.077086 0.994131
vt 0.081503 0.994131
vt 0.085919 0.976466
vt 0.085919 0.980882
vn 0.000000 0.000000 1.000000
vn 0.000000 0.000000 1.000000
vn 0.000000 0.000000 1.000000
vn 0.000000 0.000000 1.000000
vn 0.000000 1.000000 0.000000
vn 0.000000 1.000000 0.000000
vn 0.000000 1.000000 0.000000
vn 0.000000 1.000000 0.000000
vn 0.000000 -0.000201 -1.000000
vn 0.000000 -0.000201 -1.000000
vn 0.000000 -0.000201 -1.000000
vn 0.000000 -0.000201 -1.000000
vn 0.000000 -1.000000 -0.000878
vn 0.000000 -1.000000 -0.000878
vn 0.000000 -1.000000 -0.000878
vn 0.000000 -1.000000 -0.000878
vn 1.000000 0.000000 0.000000
vn 1.000000 0.000000 0.000000
vn 1.000000 0.000000 0.000000
vn 1.000000 0.000000 0.000000
s off
g pCube23
usemtl lambert4SG
f 1/1/1 2/2/2 4/4/3 3/3/4
f 3/3/5 4/4/6 6/6/7 5/5/8
f 5/5/9 6/6/10 8/8/11 7/7/12
f 7/7/13 8/8/14 2/10/15 1/9/16
f 2/2/17 8/11/18 6/12/19 4/4/20
g default
v 0.342900 2.525917 7.743883
v 0.591596 2.525917 7.743883
v 0.342900 2.826559 7.743883
v 0.591596 2.826559 7.743883
v 0.342900 2.826559 7.143040
v 0.591596 2.826559 7.143040
v 0.342900 2.481314 7.143101
v 0.591596 2.481314 7.143101
vt 0.077086 0.976466
vt 0.081503 0.976466
vt 0.077086 0.980882
vt 0.081503 0.980882
vt 0.077086 0.985299
vt 0.081503 0.985299
vt 0.077086 0.989715
vt 0.081503 0.989715
vt 0.077086 0.994131
vt 0.081503 0.994131
vt 0.085919 0.976466
vt 0.085919 0.980882
vn 0.000000 0.000000 1.000000
vn 0.000000 0.000000 1.000000
vn 0.000000 0.000000 1.000000
vn 0.000000 0.000000 1.000000
vn 0.000000 1.000000 0.000000
vn 0.000000 1.000000 0.000000
vn 0.000000 1.000000 0.000000
vn 0.000000 1.000000 0.000000
vn 0.000000 -0.000175 -1.000000
vn 0.000000 -0.000175 -1.000000
vn 0.000000 -0.000175 -1.000000
vn 0.000000 -0.000175 -1.000000
vn 0.000000 -0.997255 0.074038
vn 0.000000 -0.997255 0.074038
vn 0.000000 -0.997255 0.074038
vn 0.000000 -0.997255 0.074038
vn 1.000000 0.000000 0.000000
vn 1.000000 0.000000 0.000000
vn 1.000000 0.000000 0.000000
vn 1.000000 0.000000 0.000000
s off
g pCube22
usemtl lambert4SG
f 9/13/21 10/14/22 12/16/23 11/15/24
f 11/15/25 12/16/26 14/18/27 13/17/28
f 13/17/29 14/18/30 16/20/31 15/19/32
f 15/19/33 16/20/34 10/22/35 9/21/36
f 10/14/37 16/23/38 14/24/39 12/16/40
g default
v 0.342900 0.399024 6.363461
v 0.591596 0.399024 6.363461
v 0.342900 0.699666 6.363461
v 0.591596 0.699666 6.363461
v 0.342900 0.699666 5.762619
v 0.591596 0.699666 5.762619
v 0.342900 0.354421 5.762679
v 0.591596 0.354421 5.762679
vt 0.077086 0.976466
vt 0.081503 0.976466
vt 0.077086 0.980882
vt 0.081503 0.980882
vt 0.077086 0.985299
vt 0.081503 0.985299
vt 0.077086 0.989715
vt 0.081503 0.989715
vt 0.077086 0.994131
vt 0.081503 0.994131
vt 0.085919 0.976466
vt 0.085919 0.980882
vn 0.000000 0.000000 1.000000
vn 0.000000 0.000000 1.000000
vn 0.000000 0.000000 1.000000
vn 0.000000 0.000000 1.000000
vn 0.000000 1.000000 0.000000
vn 0.000000 1.000000 0.000000
vn 0.000000 1.000000 0.000000
vn 0.000000 1.000000 0.000000
vn 0.000000 -0.000175 -1.000000
vn 0.000000 -0.000175 -1.000000
vn 0.000000 -0.000175 -1.000000
vn 0.000000 -0.000175 -1.000000
vn 0.000000 -0.997255 0.074038
vn 0.000000 -0.997255 0.074038
vn 0.000000 -0.997255 0.074038
vn 0.000000 -0.997255 0.074038
vn 1.000000 0.000000 0.000000
vn 1.000000 0.000000 0.000000
vn 1.000000 0.000000 0.000000
vn 1.000000 0.000000 0.000000
s off
g pCube30
usemtl lambert4SG
f 17/25/41 18/26/42 20/28/43 19/27/44
f 19/27/45 20/28/46 22/30/47 21/29/48
f 21/29/49 22/30/50 24/32/51 23/31/52
f 23/31/53 24/32/54 18/34/55 17/33/56
f 18/26/57 24/35/58 22/36/59 20/28/60
g default
v -0.403572 3.556338 7.187996
v 0.403572 3.556338 7.187996
v -0.403572 4.111752 7.187996
v 0.403572 4.111752 7.187996
v -0.403572 4.111752 6.704419
v 0.403572 4.111752 6.704419
v -0.403572 3.556338 6.704419
v 0.403572 3.556338 6.704419
vt 0.242709 0.980936
vt 0.240465 0.980936
vt 0.242709 0.978692
vt 0.240465 0.978692
vt 0.242709 0.976447
vt 0.240465 0.976447
vt 0.242709 0.974203
vt 0.240465 0.974203
vt 0.242709 0.971959
vt 0.240465 0.971959
vt 0.238220 0.980936
vt 0.238220 0.978692
vt 0.244953 0.980936
vt 0.244953 0.978692
vn 0.000000 0.000000 1.000000
vn 0.000000 0.000000 1.000000
vn 0.000000 0.000000 1.000000
vn 0.000000 0.000000 1.000000
vn 0.000000 1.000000 0.000000
vn 0.000000 1.000000 0.000000
vn 0.000000 1.000000 0.000000
vn 0.000000 1.000000 0.000000
vn 0.000000 0.000000 -1.000000
vn 0.000000 0.000000 -1.000000
vn 0.000000 0.000000 -1.000000
vn 0.000000 0.000000 -1.000000
vn 0.000000 -1.000000 0.000000
vn 0.000000 -1.000000 0.000000
vn 0.000000 -1.000000 0.000000
vn 0.000000 -1.000000 0.000000
vn 1.000000 0.000000 0.000000
vn 1.000000 0.000000 0.000000
vn 1.000000 0.000000 0.000000
vn 1.000000 0.000000 0.000000
vn -1.000000 0.000000 0.000000
vn -1.000000 0.000000 0.000000
vn -1.000000 0.000000 0.000000
vn -1.000000 0.000000 0.000000
s off
g pCube10
usemtl lambert4SG
f 25/37/61 26/38/62 28/40/63 27/39/64
f 27/39/65 28/40/66 30/42/67 29/41/68
f 29/41/69 30/42/70 32/44/71 31/43/72
f 31/43/73 32/44/74 26/46/75 25/45/76
f 26/38/77 32/47/78 30/48/79 28/40/80
f 31/49/81 25/37/82 27/39/83 29/50/84
g default
v -0.403572 3.556338 8.061428
v 0.403572 3.556338 8.061428
v -0.403572 4.111752 8.061428
v 0.403572 4.111752 8.061428
v -0.403572 4.111752 7.577851
v 0.403572 4.111752 7.577851
v -0.403572 3.556338 7.577851
v 0.403572 3.556338 7.577851
vt 0.242709 0.980936
vt 0.240465 0.980936
vt 0.242709 0.978692
vt 0.240465 0.978692
vt 0.242709 0.976447
vt 0.240465 0.976447
vt 0.242709 0.974203
vt 0.240465 0.974203
vt 0.242709 0.971959
vt 0.240465 0.971959
vt 0.238221 0.980936
vt 0.238221 0.978692
vt 0.244953 0.980936
vt 0.244953 0.978692
vn 0.000000 0.000000 1.000000
vn 0.000000 0.000000 1.000000
vn 0.000000 0.000000 1.000000
vn 0.000000 0.000000 1.000000
vn 0.000000 1.000000 0.000000
vn 0.000000 1.000000 0.000000
vn 0.000000 1.000000 0.000000
vn 0.000000 1.000000 0.000000
vn 0.000000 0.000000 -1.000000
vn 0.000000 0.000000 -1.000000
vn 0.000000 0.000000 -1.000000
vn 0.000000 0.000000 -1.000000
vn 0.000000 -1.000000 0.000000
vn 0.000000 -1.000000 0.000000
vn 0.000000 -1.000000 0.000000
vn 0.000000 -1.000000 0.000000
vn 1.000000 0.000000 0.000000
vn 1.000000 0.000000 0.000000
vn 1.000000 0.000000 0.000000
vn 1.000000 0.000000 0.000000
vn -1.000000 0.000000 0.000000
vn -1.000000 0.000000 0.000000
vn -1.000000 0.000000 0.000000
vn -1.000000 0.000000 0.000000
s off
g pCube9
usemtl lambert4SG
f 33/51/85 34/52/86 36/54/87 35/53/88
f 35/53/89 36/54/90 38/56/91 37/55/92
f 37/55/93 38/56/94 40/58/95 39/57/96
f 39/57/97 40/58/98 34/60/99 33/59/100
f 34/52/101 40/61/102 38/62/103 36/54/104
f 39/63/105 33/51/106 35/53/107 37/64/108
g default
v -0.500000 -0.500000 8.115102
v 0.500000 -0.501152 8.115102
v -0.500000 3.273257 8.115102
v 0.500000 3.272105 8.115102
v -0.500000 3.273257 5.592422
v 0.500000 3.272105 5.592422
v -0.500000 -0.500000 5.592422
v 0.500000 -0.501152 5.592422
v -0.654025 3.273435 8.289620
v 0.654025 3.271928 8.289620
v 0.654025 3.271928 5.417902
v -0.654025 3.273435 5.417902
v -0.653754 3.508972 8.289620
v 0.654296 3.507465 8.289620
v 0.654296 3.507465 5.417902
v -0.653754 3.508972 5.417902
v -0.476090 3.508768 8.169965
v 0.476633 3.507670 8.169965
v 0.476633 3.507670 5.537557
v -0.476090 3.508768 5.537557
v -0.475951 3.629348 8.169965
v 0.476772 3.628250 8.169965
v 0.476772 3.628250 5.537557
v -0.475951 3.629348 5.537557
v -0.500000 1.103978 7.692000
v 0.500000 1.102826 7.692001
v 0.500000 1.102826 5.592422
v -0.500000 1.103978 5.592422
v -0.500000 1.739134 6.457643
v 0.500000 1.737982 6.457643
v 0.500000 1.737982 8.115102
v -0.500000 1.739134 8.115102
v -0.500000 3.273257 6.457643
v -0.654025 3.273435 6.402835
v -0.653754 3.508973 6.402835
v -0.476090 3.508768 6.440412
v -0.475951 3.629348 6.440412
v 0.476772 3.628250 6.440412
v 0.476633 3.507670 6.440412
v 0.654296 3.507465 6.402835
v 0.654025 3.271928 6.402835
v 0.500000 3.272105 6.457643
v 0.500000 1.102826 6.457643
v 0.500000 -0.501152 6.457643
v -0.500000 -0.500000 6.457643
v -0.500000 1.103978 6.457643
v -0.500000 3.273258 7.692001
v -0.654025 3.273435 7.807979
v -0.653754 3.508972 7.807979
v -0.476090 3.508768 7.728460
v -0.475951 3.629348 7.728460
v 0.476772 3.628250 7.728460
v 0.476633 3.507670 7.728460
v 0.654296 3.507465 7.807979
v 0.654025 3.271928 7.807979
v 0.500000 3.272105 7.692001
v 0.500000 1.737982 7.692000
v 0.500000 -0.501152 7.692000
v -0.500000 -0.500000 7.692000
v -0.500000 1.739134 7.692001
v 0.500000 1.335077 8.115102
v 0.500000 0.940030 8.115102
v 0.500000 1.995238 5.592422
v 0.500000 1.537433 5.592422
v -0.500000 1.994256 5.592422
v -0.500000 1.536268 5.592422
v -0.500000 1.353803 8.115102
v -0.500000 0.937093 8.115102
vt 0.231925 0.970482
vt 0.236259 0.970482
vt 0.231925 0.974816
vt 0.236259 0.974816
vt 0.231925 0.979150
vt 0.236259 0.979150
vt 0.231925 0.983485
vt 0.236259 0.983485
vt 0.231925 0.987819
vt 0.236259 0.987819
vt 0.240594 0.970482
vt 0.240594 0.974816
vt 0.227591 0.970482
vt 0.227591 0.974816
vt 0.231925 0.974816
vt 0.236259 0.974816
vt 0.236259 0.979150
vt 0.231925 0.979150
vt 0.231925 0.974816
vt 0.236259 0.974816
vt 0.236259 0.979150
vt 0.231925 0.979150
vt 0.231925 0.974816
vt 0.236259 0.974816
vt 0.236259 0.979150
vt 0.231925 0.979150
vt 0.222348 0.991717
vt 0.236259 0.974816
vt 0.228234 0.997604
vt 0.231925 0.979150
vt 0.231925 0.972324
vt 0.236259 0.972324
vt 0.236259 0.981642
vt 0.240594 0.972324
vt 0.227591 0.972324
vt 0.231925 0.981642
vt 0.231925 0.980913
vt 0.236259 0.980913
vt 0.236259 0.973054
vt 0.231925 0.973054
vt 0.229077 0.974816
vt 0.231925 0.977664
vt 0.231925 0.977664
vt 0.231925 0.977664
vt 0.231925 0.977664
vt 0.231925 0.977664
vt 0.228234 0.995585
vt 0.236259 0.977664
vt 0.236259 0.977664
vt 0.236259 0.977664
vt 0.236259 0.977664
vt 0.239107 0.974816
vt 0.239107 0.973054
vt 0.239107 0.972324
vt 0.236259 0.984971
vt 0.239107 0.970482
vt 0.229077 0.970482
vt 0.231925 0.984971
vt 0.229077 0.972324
vt 0.229077 0.973054
vt 0.231198 0.974816
vt 0.231925 0.975543
vt 0.231925 0.975543
vt 0.231925 0.975543
vt 0.231925 0.975543
vt 0.222348 0.992705
vt 0.236259 0.975543
vt 0.236259 0.975543
vt 0.236259 0.975543
vt 0.236259 0.975543
vt 0.236259 0.975543
vt 0.236986 0.974816
vt 0.236986 0.973054
vt 0.236986 0.972324
vt 0.236259 0.987092
vt 0.236986 0.970482
vt 0.231198 0.970482
vt 0.231925 0.987092
vt 0.231198 0.972324
vt 0.231198 0.973054
vt 0.236259 0.972591
vt 0.236259 0.972137
vt 0.236259 0.980617
vt 0.240594 0.973349
vt 0.236259 0.981143
vt 0.240594 0.972823
vt 0.227591 0.973347
vt 0.231925 0.980620
vt 0.227591 0.972821
vt 0.231925 0.981146
vt 0.231925 0.972611
vt 0.231925 0.972132
vt 0.228234 0.992705
vt 0.236259 0.977664
vt 0.231925 0.975543
vt 0.222348 0.995585
vt 0.236259 0.979150
vt 0.222348 0.997604
vt 0.231925 0.974816
vt 0.228234 0.991717
vn -0.011293 -0.000669 0.999936
vn -0.011288 0.000642 0.999936
vn -0.005552 -0.558594 0.829423
vn -0.005468 -0.550102 0.835079
vn 0.001152 0.999999 -0.000000
vn 0.001152 0.999999 -0.000000
vn 0.001152 0.999999 0.000000
vn 0.001152 0.999999 0.000000
vn -0.000005 0.806286 -0.591525
vn 0.000000 0.000000 -1.000000
vn 0.000000 0.000000 -1.000000
vn -0.000005 0.805936 -0.592003
vn -0.001152 -0.999999 0.000000
vn -0.001152 -0.999999 0.000000
vn -0.001152 -0.999999 0.000000
vn -0.001152 -0.999999 0.000000
vn 1.000000 0.000000 0.000000
vn 1.000000 0.000000 0.000000
vn 1.000000 0.000000 0.000000
vn 1.000000 0.000000 0.000000
vn -1.000000 0.000000 0.000000
vn -1.000000 0.000000 0.000000
vn -1.000000 0.000000 0.000000
vn -1.000000 0.000000 0.000000
vn -0.001152 -0.999999 0.000000
vn -0.001152 -0.999999 0.000001
vn -0.001152 -0.999999 0.000001
vn -0.001152 -0.999999 0.000000
vn -0.001152 -0.999999 0.000000
vn -0.001152 -0.999999 0.000000
vn -0.001152 -0.999999 -0.000001
vn -0.001152 -0.999999 -0.000001
vn -0.001152 -0.999999 -0.000001
vn -0.001152 -0.999999 -0.000001
vn -0.001152 -0.999999 0.000000
vn -0.001152 -0.999999 0.000000
vn 0.000000 0.000000 1.000000
vn 0.000000 0.000000 1.000000
vn 0.000000 0.000000 1.000000
vn 0.000000 0.000000 1.000000
vn 0.999999 -0.001152 0.000000
vn 0.999999 -0.001152 0.000000
vn 0.999999 -0.001152 0.000000
vn 0.999999 -0.001152 0.000000
vn 0.000000 0.000000 -1.000000
vn 0.000000 0.000000 -1.000000
vn 0.000000 0.000000 -1.000000
vn 0.000000 0.000000 -1.000000
vn -0.999999 0.001152 -0.000000
vn -0.999999 0.001152 -0.000000
vn -0.999999 0.001152 -0.000000
vn -0.999999 0.001152 -0.000000
vn 0.001152 0.999999 -0.000001
vn 0.001152 0.999999 -0.000001
vn 0.001152 0.999999 -0.000001
vn 0.001152 0.999999 -0.000001
vn 0.001151 0.999999 0.000000
vn 0.001151 0.999999 0.000000
vn 0.001152 0.999999 0.000001
vn 0.001152 0.999999 0.000001
vn 0.001152 0.999999 0.000001
vn 0.001152 0.999999 0.000001
vn 0.001152 0.999999 0.000000
vn 0.001152 0.999999 0.000000
vn 0.000000 0.000000 1.000000
vn 0.000000 0.000000 1.000000
vn 0.000000 0.000000 1.000000
vn 0.000000 0.000000 1.000000
vn 0.999999 -0.001152 -0.000000
vn 0.999999 -0.001152 -0.000000
vn 0.999999 -0.001152 0.000000
vn 0.999999 -0.001152 0.000000
vn 0.000000 0.000000 -1.000000
vn 0.000000 0.000000 -1.000000
vn 0.000000 0.000000 -1.000000
vn 0.000000 0.000000 -1.000000
vn -0.999999 0.001152 0.000000
vn -0.999999 0.001152 -0.000000
vn -0.999999 0.001152 -0.000000
vn -0.999999 0.001152 0.000000
vn -0.000228 0.255602 0.966782
vn -0.000227 0.254512 0.967070
vn 1.000000 0.000000 0.000000
vn 1.000000 0.000000 0.000000
vn 0.000000 0.000000 -1.000000
vn 0.000000 0.000000 -1.000000
vn -1.000000 0.000000 0.000000
vn -1.000000 0.000000 0.000000
vn -0.000042 -0.490994 -0.871163
vn -0.000042 -0.491492 -0.870882
vn 0.000000 0.000000 -1.000000
vn 0.000000 0.000000 -1.000000
vn 1.000000 0.000000 0.000000
vn 1.000000 0.000000 0.000000
vn 1.000000 0.000000 0.000000
vn 0.000000 0.000000 1.000000
vn 0.000000 0.000000 1.000000
vn 0.000000 0.000000 1.000000
vn 0.000000 0.000000 1.000000
vn -1.000000 0.000000 0.000000
vn -1.000000 0.000000 0.000000
vn -1.000000 0.000000 0.000000
vn -0.001152 -0.999999 0.000000
vn -0.001152 -0.999999 -0.000000
vn -0.999999 0.001152 0.000000
vn -0.999999 0.001152 0.000000
vn 0.001152 0.999999 -0.000000
vn 0.001152 0.999999 0.000000
vn -0.999999 0.001152 -0.000000
vn -0.999999 0.001152 0.000000
vn 0.001152 0.999999 0.000000
vn 0.001152 0.999999 0.000000
vn 0.999999 -0.001152 0.000000
vn 0.999999 -0.001152 0.000000
vn 0.001151 0.999999 0.000000
vn 0.001151 0.999999 0.000000
vn 0.999999 -0.001152 0.000000
vn 0.999999 -0.001152 0.000000
vn -0.001152 -0.999999 0.000000
vn -0.001152 -0.999999 0.000000
vn 1.000000 0.000000 0.000000
vn 1.000000 0.000000 0.000000
vn 1.000000 0.000000 0.000000
vn 1.000000 0.000000 0.000000
vn -0.001152 -0.999999 0.000000
vn -0.001152 -0.999999 0.000000
vn -1.000000 0.000000 0.000000
vn -1.000000 0.000000 0.000000
vn -1.000000 0.000000 0.000000
vn -1.000000 0.000000 0.000000
vn -0.999999 0.001152 0.000000
vn -0.999999 0.001152 0.000000
vn -0.999999 0.001152 0.000000
vn -0.999999 0.001152 0.000000
vn 0.001152 0.999999 0.000001
vn 0.001152 0.999999 0.000001
vn 0.999999 -0.001152 0.000000
vn 0.999999 -0.001152 0.000000
vn 0.999999 -0.001152 0.000000
vn 0.999999 -0.001152 0.000000
vn 1.000000 0.000000 0.000000
vn 1.000000 0.000000 0.000000
vn -0.001152 -0.999999 0.000000
vn -0.001152 -0.999999 0.000000
vn -1.000000 0.000000 0.000000
vn -1.000000 0.000000 0.000000
vn 1.000000 0.000000 0.000000
vn 1.000000 0.000000 0.000000
vn 1.000000 0.000000 0.000000
vn -0.000173 -0.000709 -1.000000
vn -0.000173 0.000708 -1.000000
vn -1.000000 0.000000 0.000000
vn -1.000000 0.000000 0.000000
vn -1.000000 0.000000 0.000000
vn 0.000000 0.000000 1.000000
vn 0.000000 0.000000 1.000000
s 1
g pCube7
usemtl lambert4SG
f 65/95/109 66/96/110 101/145/111 107/155/112
s 2
f 77/160/113 78/111/114 63/93/115 64/162/116
s 3
f 104/149/117 67/97/118 68/100/119 106/154/120
s 4
f 47/71/121 48/72/122 84/119/123 85/122/124
s 5
f 70/117/125 83/118/126 67/98/127 104/150/128
s 6
f 68/99/129 86/123/130 69/124/131 106/153/132
s 7
f 43/67/133 44/68/134 50/80/135 49/79/136
f 81/114/137 82/115/138 46/70/139 51/81/140
f 46/70/139 45/69/141 52/82/142 51/81/140
f 45/69/141 73/106/143 74/107/144 52/82/142
s off
f 49/79/145 50/80/146 54/84/147 53/83/148
s 9
f 80/113/149 81/114/150 51/81/151 55/85/152
s off
f 51/81/153 52/82/154 56/86/155 55/85/156
s 10
f 52/82/157 74/107/158 75/108/159 56/86/160
s 11
f 53/83/161 54/84/162 58/88/163 57/87/164
f 79/112/165 80/113/166 55/85/167 59/89/168
f 55/85/167 56/86/169 60/90/170 59/89/168
f 56/86/169 75/108/171 76/109/172 60/90/170
s off
f 57/87/173 58/88/174 62/92/175 61/163/176
s 13
f 78/158/177 79/112/178 59/89/179 63/161/180
s off
f 59/89/181 60/90/182 64/94/183 63/161/184
s 14
f 60/90/185 76/109/186 77/110/187 64/94/188
s 1
f 102/146/189 66/96/110 65/95/109 108/156/190
s 5
f 83/118/126 84/120/191 48/75/192 67/98/127
s 3
f 68/100/119 67/97/118 48/72/193 47/71/194
s 6
f 47/77/195 85/121/196 86/123/130 68/99/129
s 3
f 103/147/197 105/152/198 45/69/199 46/70/200
s 5
f 82/116/201 70/117/125 103/148/202 46/76/203
s 1
f 72/104/204 71/103/205 44/68/206 43/67/207
s 6
f 105/151/208 69/124/131 73/105/209 45/78/210
s 7
f 74/107/144 73/106/143 87/126/211 88/127/212
s 10
f 75/108/159 74/107/158 88/127/213 89/128/214
s 11
f 76/109/172 75/108/171 89/128/215 90/129/216
s 14
f 77/110/187 76/109/186 90/129/217 91/159/218
s 2
f 91/130/219 92/157/220 78/111/114 77/160/113
s 13
f 92/131/221 93/132/222 79/112/178 78/158/177
s 11
f 93/132/223 94/133/224 80/113/166 79/112/165
s 9
f 94/133/225 95/134/226 81/114/150 80/113/149
s 7
f 95/134/227 96/135/228 82/115/138 81/114/137
s 5
f 96/136/229 97/137/230 70/117/125 82/116/201
f 97/137/230 66/138/231 83/118/126 70/117/125
f 66/138/231 98/140/232 84/120/191 83/118/126
s 4
f 85/122/124 84/119/123 98/139/233 99/142/234
s 6
f 86/123/130 85/121/196 99/141/235 65/143/236
f 69/124/131 86/123/130 65/143/236 100/144/237
f 73/105/209 69/124/131 100/144/237 87/125/238
s 7
f 88/127/212 87/126/211 43/67/133 49/79/136
s 10
f 89/128/214 88/127/213 49/79/239 53/83/240
s 11
f 90/129/216 89/128/215 53/83/161 57/87/164
s 14
f 91/159/218 90/129/217 57/87/241 61/163/242
s 2
f 61/91/243 62/164/244 92/157/220 91/130/219
s 13
f 58/88/245 93/132/222 92/131/221 62/92/246
s 11
f 54/84/162 94/133/224 93/132/223 58/88/163
s 9
f 50/80/247 95/134/226 94/133/225 54/84/248
s 7
f 44/68/134 96/135/228 95/134/227 50/80/135
s 5
f 71/103/249 97/137/230 96/136/229 44/68/250
s 4
f 99/142/234 98/139/233 42/74/251 41/73/252
s 6
f 87/125/238 100/144/237 72/104/253 43/67/254
s 5
f 101/145/255 66/138/231 97/137/230 71/103/249
f 42/66/256 98/140/232 66/138/231 102/146/257
s 3
f 69/101/258 105/152/198 103/147/197 70/102/259
f 104/149/117 106/154/120 69/101/258 70/102/259
s 1
f 107/155/112 101/145/111 71/103/205 72/104/204
s 6
f 100/144/237 65/143/236 107/155/260 72/104/253
f 65/143/236 99/141/235 41/65/261 108/156/262
s 1
f 102/146/189 108/156/190 41/65/263 42/66/264
