# Blender v2.78 (sub 0) OBJ File: 'Mines.blend'
# www.blender.org
mtllib Dynamite .mtl
g Dynamite_
v 0.000000 0.020985 -0.143563
v 0.000000 0.020985 0.143563
v 0.008031 0.019388 -0.143563
v 0.008031 0.019388 0.143563
v 0.014839 0.014839 -0.143563
v 0.014839 0.014839 0.143563
v 0.019388 0.008031 -0.143563
v 0.019388 0.008031 0.143563
v 0.020985 0.000000 -0.143563
v 0.020985 -0.000000 0.143563
v 0.019388 -0.008031 -0.143563
v 0.019388 -0.008031 0.143563
v 0.014839 -0.014839 -0.143563
v 0.014839 -0.014839 0.143563
v 0.008031 -0.019388 -0.143563
v 0.008031 -0.019388 0.143563
v 0.000000 -0.020985 -0.143563
v 0.000000 -0.020985 0.143563
v -0.008031 -0.019388 -0.143563
v -0.008031 -0.019388 0.143563
v -0.014839 -0.014839 -0.143563
v -0.014839 -0.014839 0.143563
v -0.019388 -0.008031 -0.143563
v -0.019388 -0.008031 0.143563
v -0.020985 0.000000 -0.143563
v -0.020985 0.000000 0.143563
v -0.019388 0.008031 -0.143563
v -0.019388 0.008031 0.143563
v -0.014839 0.014839 -0.143563
v -0.014839 0.014839 0.143563
v -0.008031 0.019388 -0.143563
v -0.008031 0.019388 0.143563
v 0.000000 0.000000 -0.143563
v 0.000000 -0.000000 0.143563
v 0.000000 0.020985 -0.143563
v 0.008031 0.019388 -0.143563
v 0.008031 0.019388 0.143563
v 0.000000 0.020985 0.143563
v 0.014839 0.014839 -0.143563
v 0.014839 0.014839 0.143563
v 0.019388 0.008031 -0.143563
v 0.019388 0.008031 0.143563
v 0.020985 0.000000 -0.143563
v 0.020985 -0.000000 0.143563
v 0.019388 -0.008031 -0.143563
v 0.019388 -0.008031 0.143563
v 0.014839 -0.014839 -0.143563
v 0.014839 -0.014839 0.143563
v 0.008031 -0.019388 -0.143563
v 0.008031 -0.019388 0.143563
v 0.000000 -0.020985 -0.143563
v 0.000000 -0.020985 0.143563
v -0.008031 -0.019388 -0.143563
v -0.008031 -0.019388 0.143563
v -0.014839 -0.014839 -0.143563
v -0.014839 -0.014839 0.143563
v -0.019388 -0.008031 -0.143563
v -0.019388 -0.008031 0.143563
v -0.020985 0.000000 -0.143563
v -0.020985 0.000000 0.143563
v -0.019388 0.008031 -0.143563
v -0.019388 0.008031 0.143563
v -0.014839 0.014839 -0.143563
v -0.014839 0.014839 0.143563
v -0.008031 0.019388 -0.143563
v -0.008031 0.019388 0.143563
vt 0.9999 0.2282
vt 0.0001 0.2282
vt 0.0001 0.1997
vt 0.9999 0.1997
vt 0.0001 0.1712
vt 0.9999 0.1712
vt 0.0001 0.1427
vt 0.9999 0.1427
vt 0.0001 0.1141
vt 0.9999 0.1141
vt 0.0001 0.0856
vt 0.9999 0.0856
vt 0.0001 0.0571
vt 0.9999 0.0571
vt 0.0001 0.0286
vt 0.9999 0.0286
vt 0.0001 0.0001
vt 0.9999 0.0001
vt 0.9999 0.4563
vt 0.0001 0.4563
vt 0.0001 0.4278
vt 0.9999 0.4278
vt 0.0001 0.3993
vt 0.9999 0.3993
vt 0.0001 0.3708
vt 0.9999 0.3708
vt 0.0001 0.3422
vt 0.9999 0.3422
vt 0.0001 0.3137
vt 0.9999 0.3137
vt 0.0001 0.2852
vt 0.9999 0.2852
vt 0.0312 0.4674
vt 0.0575 0.4565
vt 0.0718 0.5282
vt 0.0001 0.2567
vt 0.9999 0.2567
vt 0.0312 0.5889
vt 0.0110 0.5687
vt 0.0860 0.5998
vt 0.0575 0.5998
vt 0.1434 0.5139
vt 0.1434 0.5424
vt 0.0001 0.5139
vt 0.0110 0.4876
vt 0.1124 0.4674
vt 0.1325 0.4876
vt 0.1124 0.5889
vt 0.0001 0.5424
vt 0.0860 0.4565
vt 0.1325 0.5687
vt 0.2559 0.4674
vt 0.2761 0.4876
vt 0.2153 0.5282
vt 0.1436 0.5139
vt 0.1545 0.4876
vt 0.2296 0.5998
vt 0.2010 0.5998
vt 0.2870 0.5139
vt 0.2870 0.5424
vt 0.1747 0.4674
vt 0.2010 0.4565
vt 0.2761 0.5687
vt 0.2559 0.5889
vt 0.1747 0.5889
vt 0.1545 0.5687
vt 0.2296 0.4565
vt 0.1436 0.5424
vn 0.0000 1.0000 0.0000
vn 0.3827 0.9239 0.0000
vn 0.7071 0.7071 0.0000
vn 0.9239 0.3827 0.0000
vn 1.0000 0.0000 0.0000
vn 0.9239 -0.3827 0.0000
vn 0.7071 -0.7071 0.0000
vn 0.3827 -0.9239 0.0000
vn 0.0000 -1.0000 0.0000
vn -0.3827 -0.9239 0.0000
vn -0.7071 -0.7071 0.0000
vn -0.9239 -0.3827 0.0000
vn -1.0000 0.0000 0.0000
vn -0.9239 0.3827 0.0000
vn -0.7071 0.7071 0.0000
vn 0.0000 0.0000 -1.0000
vn -0.3827 0.9239 0.0000
vn 0.0000 0.0000 1.0000
usemtl Dynamite_
s 1
f 35/1/1 38/2/1 37/3/2 36/4/2
f 36/4/2 37/3/2 40/5/3 39/6/3
f 39/6/3 40/5/3 42/7/4 41/8/4
f 41/8/4 42/7/4 44/9/5 43/10/5
f 43/10/5 44/9/5 46/11/6 45/12/6
f 45/12/6 46/11/6 48/13/7 47/14/7
f 47/14/7 48/13/7 50/15/8 49/16/8
f 49/16/8 50/15/8 52/17/9 51/18/9
f 51/19/9 52/20/9 54/21/10 53/22/10
f 53/22/10 54/21/10 56/23/11 55/24/11
f 55/24/11 56/23/11 58/25/12 57/26/12
f 57/26/12 58/25/12 60/27/13 59/28/13
f 59/28/13 60/27/13 62/29/14 61/30/14
f 61/30/14 62/29/14 64/31/15 63/32/15
f 15/33/16 17/34/16 33/35/16
f 63/32/15 64/31/15 66/36/17 65/37/17
f 65/37/17 66/36/17 38/2/1 35/1/1
f 5/38/16 7/39/16 33/35/16
f 1/40/16 3/41/16 33/35/16
f 25/42/16 27/43/16 33/35/16
f 11/44/16 13/45/16 33/35/16
f 21/46/16 23/47/16 33/35/16
f 31/48/16 1/40/16 33/35/16
f 7/39/16 9/49/16 33/35/16
f 17/34/16 19/50/16 33/35/16
f 27/43/16 29/51/16 33/35/16
f 3/41/16 5/38/16 33/35/16
f 13/45/16 15/33/16 33/35/16
f 23/47/16 25/42/16 33/35/16
f 9/49/16 11/44/16 33/35/16
f 19/50/16 21/46/16 33/35/16
f 29/51/16 31/48/16 33/35/16
f 12/52/18 10/53/18 34/54/18
f 22/55/18 20/56/18 34/54/18
f 32/57/18 30/58/18 34/54/18
f 8/59/18 6/60/18 34/54/18
f 18/61/18 16/62/18 34/54/18
f 4/63/18 2/64/18 34/54/18
f 28/65/18 26/66/18 34/54/18
f 14/67/18 12/52/18 34/54/18
f 24/68/18 22/55/18 34/54/18
f 2/64/18 32/57/18 34/54/18
f 10/53/18 8/59/18 34/54/18
f 20/56/18 18/61/18 34/54/18
f 30/58/18 28/65/18 34/54/18
f 6/60/18 4/63/18 34/54/18
f 16/62/18 14/67/18 34/54/18
f 26/66/18 24/68/18 34/54/18
