# Blender v2.78 (sub 0) OBJ File: 'Mines.blend'
# www.blender.org
mtllib Rubble02.mtl
g Rubble02
v -0.029058 -0.238615 0.029195
v -0.600653 -0.054728 0.334991
v 0.189267 -0.110377 0.454520
v 0.757048 -0.157499 0.029195
v 0.189267 -0.160364 -0.396129
v -0.750063 -0.099981 -0.225008
v -0.286499 0.247711 0.420246
v 0.644943 0.198718 0.257784
v 0.597939 0.256237 -0.225008
v -0.247384 0.198718 -0.430403
v -0.782591 0.200586 -0.005078
v -0.076062 0.431598 0.072128
v 0.075256 -0.235552 0.322126
v -0.365031 -0.237422 0.226634
v -0.283709 -0.081113 0.433701
v -0.701005 -0.136761 0.072128
v -0.472227 -0.190298 -0.159584
v 0.339224 -0.237421 0.029195
v 0.514559 -0.126366 0.244920
v 0.099269 -0.132779 -0.177869
v 0.564949 -0.195274 -0.255077
v -0.283709 -0.081113 -0.332378
v -0.799675 0.105953 0.192361
v -0.780322 0.048433 -0.159585
v -0.076062 0.153076 0.572128
v -0.576549 0.097427 0.433704
v 0.737763 -0.007216 0.183702
v 0.518433 0.039908 0.442363
v 0.388244 -0.199982 -0.435648
v 0.809797 0.105953 -0.159585
v -0.576549 0.097427 -0.332380
v -0.029058 0.050303 -0.462145
v -0.619679 0.226973 0.287853
v 0.627630 0.272226 0.072128
v 0.178588 0.272226 -0.375311
v -0.572675 0.216577 -0.177870
v -0.180377 0.383282 0.279193
v -0.242564 0.492907 0.266144
v 0.259911 0.391808 0.183701
v 0.359442 0.374367 -0.136184
v -0.227381 0.438931 -0.212143
v 0.437861 -0.067689 -0.574159
v 0.299435 -0.044410 -0.497244
v 0.752245 0.107228 -0.276951
v 0.586662 0.166460 -0.480462
v 0.173571 0.122800 -0.515612
v 0.335481 0.239334 -0.465649
v 0.573575 -0.069884 -0.394315
v 0.413052 -0.195176 -0.504903
v 0.214076 -0.097046 -0.465385
v 0.811163 0.079445 -0.226326
v 0.589758 -0.131956 -0.324332
v 0.018672 0.093603 -0.510979
v 0.249340 0.321469 -0.422751
v 0.601717 0.245170 -0.368071
v -0.584197 0.427294 -0.090290
v -0.735544 0.389980 0.019145
v -0.488754 0.527436 0.035999
v -0.237396 0.552858 0.073581
v -0.620681 0.408584 0.225680
v -0.379245 0.544003 0.206448
v -0.380524 0.554414 -0.089438
v -0.606128 0.281826 -0.178147
v -0.104634 0.509099 0.074085
v -0.287740 0.513002 -0.183221
v -0.811163 0.278087 -0.003121
v -0.648251 0.304473 0.289810
v 0.376236 0.240650 0.509765
v 0.439014 0.319457 0.418171
v 0.209991 0.369952 0.501637
v 0.029464 0.411044 0.428795
v -0.023197 0.343769 0.498790
v 0.197861 0.448901 0.301056
v 0.081228 0.296808 0.574159
vt 0.2773 0.8063
vt 0.3371 0.9012
vt 0.1738 0.9012
vt 0.4864 0.5152
vt 0.4069 0.4530
vt 0.5489 0.4261
vt 0.4066 0.7764
vt 0.3037 0.7147
vt 0.1100 0.7737
vt 0.4087 0.5491
vt 0.7625 0.5033
vt 0.6700 0.6162
vt 0.5941 0.5149
vt 0.9978 0.3744
vt 0.9917 0.4578
vt 0.8922 0.4431
vt 0.3217 0.6314
vt 0.3913 0.6037
vt 0.4653 0.6576
vt 0.0029 0.3586
vt 0.0952 0.3260
vt 0.1565 0.4227
vt 0.4998 0.5697
vt 0.8903 0.5428
vt 0.7356 0.3039
vt 0.6265 0.3568
vt 0.6915 0.2373
vt 0.8357 0.8257
vt 0.7964 0.7388
vt 0.8444 0.7268
vt 0.8561 0.7973
vt 0.0054 0.2977
vt 0.5714 0.6466
vt 0.5683 0.7249
vt 0.4500 0.6110
vt 0.6471 0.6292
vt 0.7238 0.6069
vt 0.7034 0.7093
vt 0.6653 0.7204
vt 0.5284 0.3425
vt 0.4535 0.2740
vt 0.5756 0.2453
vt 0.2127 0.3348
vt 0.2423 0.2259
vt 0.3657 0.3476
vt 0.9181 0.3089
vt 0.7683 0.3242
vt 0.8066 0.2712
vt 0.8886 0.2650
vt 0.7621 0.1236
vt 0.9259 0.1241
vt 0.8838 0.1650
vt 0.7933 0.1609
vt 0.9997 0.1894
vt 0.9441 0.2060
vt 0.0949 0.2572
vt 0.3319 0.1462
vt 0.4636 0.1531
vt 0.6192 0.1875
vt 0.3260 0.0587
vt 0.5508 0.7590
vt 0.6023 0.7647
vt 0.7864 0.9872
vt 0.6356 0.9440
vt 0.6278 0.8928
vt 0.7344 0.8980
vt 0.7065 0.2384
vt 0.7565 0.2302
vt 0.9997 0.2122
vt 0.0029 0.2182
vt 0.2665 0.4107
vt 0.8523 0.5613
vt 0.9694 0.6260
vt 0.9403 0.6656
vt 0.8772 0.6179
vt 0.7973 0.6546
vt 0.8282 0.6787
vt 0.7768 0.6907
vt 0.7297 0.7509
vt 0.8389 0.9039
vt 0.7605 0.8567
vt 0.3428 0.5720
vt 0.2996 0.5148
vt 0.9422 0.8863
vt 0.9429 0.8538
vt 0.7547 0.4298
vt 0.9961 0.5495
vt 0.2986 0.5031
vt 0.2898 0.4396
vt 0.0052 0.7626
vt 0.1574 0.6881
vt 0.5572 0.7429
vt 0.4929 0.8422
vt 0.7197 0.4365
vt 0.0398 0.8665
vt 0.9287 0.7538
vt 0.9774 0.7664
vt 0.4694 0.9035
vt 0.3208 0.9627
vt 0.3144 0.9116
vt 0.4418 0.8815
vt 0.2294 0.9922
vt 0.2216 0.9677
vt 0.0879 0.9687
vt 0.1093 0.9412
vt 0.6814 0.7445
vt 0.6675 0.8173
vt 0.6361 0.8022
vt 0.6627 0.7258
vt 0.5818 0.8885
vt 0.5615 0.8678
vt 0.0380 0.8930
vt 0.0497 0.8693
vt 0.8512 0.2238
vt 0.4215 0.0891
vt 0.5417 0.0786
vt 0.5421 0.1083
vt 0.4219 0.1187
vt 0.7763 0.0430
vt 0.6621 0.0604
vt 0.6543 0.0255
vt 0.7671 0.0148
vt 0.5148 0.0734
vt 0.4215 0.0443
vt 0.4236 0.0148
vt 0.5148 0.0471
vt 0.7089 0.0740
vt 0.7924 0.0898
vt 0.7875 0.1190
vt 0.7024 0.1190
vt 0.9317 0.3772
vt 0.8470 0.4458
vt 0.8439 0.3691
vt 0.7809 0.4014
vt 0.7600 0.3657
vt 0.9084 0.3323
vt 0.7986 0.3323
vn 0.0130 -0.9790 -0.2035
vn 0.0495 -0.9130 0.4050
vn -0.2021 -0.9346 0.2927
vn -0.5198 -0.5792 0.6279
vn -0.6498 -0.7447 0.1524
vn 0.0772 -0.9969 -0.0171
vn -0.0674 -0.9741 -0.2157
vn -0.1298 -0.9339 -0.3330
vn -0.9225 0.0944 0.3742
vn 0.1564 -0.5959 0.7877
vn -0.1679 -0.0160 0.9857
vn -0.1826 -0.5790 0.7946
vn 0.7280 -0.6738 0.1262
vn 0.8551 -0.1325 0.5011
vn 0.3538 -0.8031 0.4794
vn -0.2600 -0.9102 -0.3223
vn -0.0403 -0.9746 -0.2201
vn 0.3576 -0.9210 -0.1546
vn -0.7001 -0.5124 -0.4972
vn -0.4498 0.2448 -0.8589
vn -0.1302 -0.6821 -0.7195
vn -0.4917 0.0887 0.8662
vn 0.5373 -0.2623 0.8015
vn 0.9624 0.2612 -0.0745
vn 0.6808 -0.6386 -0.3587
vn 0.1538 -0.6870 -0.7101
vn 0.2077 -0.2036 -0.9568
vn 0.7156 -0.3850 -0.5828
vn -0.9119 0.1602 -0.3778
vn -0.3223 0.6829 0.6555
vn 0.0255 0.7851 0.6189
vn -0.5404 0.3464 0.7667
vn -0.3312 0.6675 0.6668
vn -0.1776 0.9355 0.3055
vn 0.4384 0.8934 -0.0978
vn 0.2475 0.9412 -0.2300
vn 0.6056 0.7839 0.1365
vn -0.2303 0.3466 -0.9093
vn 0.1113 0.6933 -0.7120
vn -0.1794 0.8966 -0.4048
vn 0.1676 0.6444 -0.7461
vn -0.4710 0.1651 -0.8665
vn -0.4829 0.6727 -0.5605
vn -0.1821 0.9172 -0.3543
vn -0.5553 0.1480 0.8183
vn 0.2870 0.5765 0.7650
vn -0.1500 0.8794 0.4518
vn -0.5159 0.6647 0.5403
vn 0.6697 0.7410 0.0484
vn 0.1757 0.9833 0.0464
vn -0.4891 0.4044 -0.7728
vn 0.4297 0.8982 0.0924
vn 0.2422 0.9701 -0.0156
vn 0.7701 0.5114 0.3812
vn 0.1224 0.9925 0.0001
vn 0.5844 0.6943 0.4200
vn -0.9819 0.0825 -0.1701
vn -0.7226 0.6820 -0.1127
vn -0.9775 0.0631 -0.2010
vn -0.2948 -0.1547 -0.9429
vn -0.5766 0.2108 -0.7893
vn -0.0885 0.9296 -0.3578
vn 0.0914 0.5439 -0.8341
vn -0.0816 0.1635 -0.9832
vn -0.3019 -0.5075 -0.8070
vn -0.3573 -0.3266 -0.8750
vn -0.0176 0.3392 0.9405
vn 0.4024 0.1761 0.8983
vn 0.9515 -0.0695 -0.2996
vn 0.7789 0.0858 -0.6212
vn 0.5114 0.3227 -0.7964
vn 0.4586 0.8380 -0.2955
vn -0.3858 0.9224 -0.0171
vn 0.2021 0.7366 0.6454
usemtl Rubble02
s 1
f 1/1/1 13/2/2 14/3/3
f 2/4/4 16/5/5 14/6/3
f 1/1/1 18/7/6 13/2/2
f 1/1/1 20/8/7 18/7/6
f 1/1/1 17/9/8 20/8/7
f 2/4/4 23/10/9 16/5/5
f 3/11/10 25/12/11 15/13/12
f 4/14/13 27/15/14 19/16/15
f 5/17/16 29/18/17 21/19/18
f 6/20/19 31/21/20 22/22/21
f 2/4/4 26/23/22 23/10/9
f 3/11/10 28/24/23 25/12/11
f 4/25/13 30/26/24 27/27/14
f 52/28/25 49/29/26 42/30/27 48/31/28
f 6/20/19 24/32/29 31/21/20
f 7/33/30 37/34/31 33/35/32
f 37/36/31 7/37/30 72/38/33 71/39/34
f 9/40/35 40/41/36 34/42/37
f 10/43/38 41/44/39 35/45/40
f 65/46/41 63/47/42 56/48/43 62/49/44
f 67/50/45 38/51/46 61/52/47 60/53/48
f 38/51/46 64/54/49 59/55/50 61/52/47
f 36/56/51 41/44/39 10/43/38
f 41/44/39 12/57/52 40/41/36
f 41/44/39 40/41/36 35/45/40
f 35/45/40 40/41/36 9/40/35
f 40/41/36 12/57/52 39/58/53
f 40/41/36 39/58/53 34/42/37
f 34/42/37 39/58/53 8/59/54
f 39/58/53 12/57/52 37/60/31
f 39/61/53 37/36/31 71/39/34 73/62/55
f 8/63/54 39/64/53 73/65/55 69/66/56
f 63/47/42 66/67/57 57/68/58 56/48/43
f 64/69/49 65/46/41 62/49/44 59/55/50
f 66/67/57 67/50/45 60/53/48 57/68/58
f 24/32/29 11/70/59 36/56/51
f 24/32/29 36/56/51 31/21/20
f 31/21/20 36/56/51 10/43/38
f 32/71/60 10/43/38 35/45/40
f 53/72/61 54/73/62 47/74/63 46/75/64
f 50/76/65 53/72/61 46/75/64 43/77/66
f 30/26/24 9/40/35 34/42/37
f 30/26/24 34/42/37 27/27/14
f 27/27/14 34/42/37 8/59/54
f 7/37/30 25/78/11 74/79/67 72/38/33
f 28/80/23 8/63/54 69/66/56 68/81/68
f 25/78/11 28/80/23 68/81/68 74/79/67
f 26/23/22 7/33/30 33/35/32
f 26/23/22 33/35/32 23/10/9
f 23/10/9 33/35/32 11/82/59
f 31/21/20 10/43/38 32/71/60
f 31/21/20 32/71/60 22/22/21
f 22/22/21 32/71/60 5/83/16
f 49/29/26 50/76/65 43/77/66 42/30/27
f 51/84/69 52/28/25 48/31/28 44/85/70
f 21/86/18 30/26/24 4/25/13
f 27/15/14 8/87/54 28/24/23
f 27/15/14 28/24/23 19/16/15
f 19/16/15 28/24/23 3/11/10
f 25/12/11 7/33/30 26/23/22
f 25/12/11 26/23/22 15/13/12
f 15/13/12 26/23/22 2/4/4
f 23/10/9 11/82/59 24/88/29
f 23/10/9 24/88/29 16/5/5
f 16/5/5 24/88/29 6/89/19
f 17/9/8 6/90/19 22/91/21
f 17/9/8 22/91/21 20/8/7
f 20/8/7 22/91/21 5/17/16
f 20/8/7 5/17/16 21/19/18
f 20/8/7 21/19/18 18/7/6
f 18/7/6 21/19/18 4/92/13
f 18/7/6 4/92/13 19/93/15
f 18/7/6 19/93/15 13/2/2
f 13/94/2 19/16/15 3/11/10
f 16/95/5 6/90/19 17/9/8
f 16/95/5 17/9/8 14/3/3
f 14/3/3 17/9/8 1/1/1
f 13/94/2 3/11/10 15/13/12
f 13/94/2 15/13/12 14/6/3
f 14/6/3 15/13/12 2/4/4
f 43/77/66 46/75/64 42/30/27
f 46/75/64 47/74/63 42/30/27
f 42/30/27 47/74/63 45/96/71
f 42/30/27 45/96/71 44/85/70
f 42/30/27 44/85/70 48/31/28
f 55/97/72 51/84/69 44/85/70 45/96/71
f 54/73/62 55/97/72 45/96/71 47/74/63
f 35/98/40 9/99/35 55/100/72 54/101/62
f 9/99/35 30/102/24 51/103/69 55/100/72
f 30/102/24 21/104/18 52/105/25 51/103/69
f 29/106/17 5/107/16 50/108/65 49/109/26
f 5/107/16 32/110/60 53/111/61 50/108/65
f 32/110/60 35/98/40 54/101/62 53/111/61
f 21/104/18 29/112/17 49/113/26 52/105/25
f 57/68/58 58/114/73 56/48/43
f 58/114/73 59/55/50 62/49/44
f 58/114/73 62/49/44 56/48/43
f 61/52/47 59/55/50 58/114/73
f 61/52/47 58/114/73 60/53/48
f 60/53/48 58/114/73 57/68/58
f 11/115/59 33/116/32 67/117/45 66/118/57
f 12/119/52 41/120/39 65/121/41 64/122/49
f 36/123/51 11/124/59 66/125/57 63/126/42
f 37/127/31 12/128/52 64/129/49 38/130/46
f 33/116/32 37/127/31 38/130/46 67/117/45
f 41/120/39 36/123/51 63/126/42 65/121/41
f 69/131/56 73/132/55 70/133/74
f 73/132/55 71/134/34 70/133/74
f 70/133/74 71/134/34 72/135/33
f 68/136/68 69/131/56 70/133/74
f 68/136/68 70/133/74 74/137/67
f 74/137/67 70/133/74 72/135/33
