# Blender v2.78 (sub 0) OBJ File: 'Mines.blend'
# www.blender.org
mtllib Rubble03.mtl
g Rubble03._Rubble03
v -0.584819 -0.531248 -0.002734
v -1.163987 -0.272216 0.308696
v -0.366494 -0.403061 0.539433
v -0.366494 -0.453048 -0.428058
v -1.312809 -0.328572 -0.259531
v -0.805857 0.085591 0.421529
v 0.089182 0.089827 0.225855
v 0.042178 0.147346 -0.256937
v -0.772736 0.012008 -0.484512
v -1.360852 0.082353 -0.114841
v -0.336560 0.409519 -0.022918
v -0.480505 -0.528236 0.290197
v -0.920792 -0.509484 0.194705
v -0.839470 -0.338574 0.401772
v -1.261892 -0.364046 0.040779
v -1.027989 -0.439453 -0.191513
v -0.216537 -0.530105 -0.002734
v -0.041202 -0.419050 0.329833
v -0.456492 -0.424723 -0.209799
v 0.009188 -0.487958 -0.287006
v -0.839039 -0.325861 -0.364445
v -1.438190 -0.061565 0.177115
v -1.410426 -0.116998 -0.205310
v -0.631438 -0.114854 0.540279
v -1.157151 -0.086705 0.427862
v -0.037329 -0.252776 0.662040
v -0.167517 -0.492666 -0.467577
v -1.166512 -0.067266 -0.391201
v -0.584819 -0.223992 -0.494075
v -1.125009 0.138596 0.237388
v 0.040124 0.163335 0.040204
v -0.372772 0.011417 -0.412127
v -1.048252 0.122922 -0.319331
v -0.504619 0.334167 0.220647
v -0.671604 0.451384 0.141482
v -0.242130 0.159440 0.160483
v -0.185369 0.109934 -0.171686
v -0.574505 0.390317 -0.357582
v -0.117900 -0.360373 -0.606088
v -0.256327 -0.337094 -0.529173
v 0.030900 -0.126224 -0.512391
v -0.382190 -0.168539 -0.547541
v -0.220281 -0.053333 -0.497578
v -0.142709 -0.487860 -0.536833
v -0.341685 -0.389730 -0.497314
v 0.033996 -0.424640 -0.645024
v -0.537089 -0.185733 -0.542908
v -0.306395 0.044098 -0.457231
v 0.045956 -0.047514 -0.400000
v -1.085099 0.409856 -0.169203
v -1.261051 0.368946 -0.071434
v -0.992869 0.505238 -0.068594
v -0.688891 0.531299 -0.022801
v -1.125823 0.393277 0.113085
v -0.858347 0.511014 0.095903
v -0.861700 0.518085 -0.168442
v -1.062699 0.263740 -0.249656
v -0.509732 0.478956 -0.027785
v -0.726969 0.463524 -0.254146
v -1.305550 0.247696 -0.096199
v -1.118261 0.284191 0.163925
v -0.179526 -0.052034 0.594678
v -0.116747 0.026773 0.386242
v -0.345033 0.092727 0.473531
v -0.460791 0.200147 0.421824
v -0.543943 0.118541 0.484534
v -0.286766 0.224379 0.286259
v -0.473838 0.024155 0.543658
v 0.656084 -0.531299 -0.002734
v 1.227679 -0.347412 0.303062
v 0.437759 -0.403061 0.539433
v 0.437759 -0.453048 -0.428058
v 1.377090 -0.392665 -0.256937
v 0.913525 -0.044973 0.388317
v 0.874410 -0.093966 -0.462332
v 1.409617 -0.092098 -0.037007
v 0.703088 0.138914 0.040199
v 0.551770 -0.528236 0.290197
v 0.992057 -0.530106 0.194705
v 0.910735 -0.373797 0.401772
v 1.328032 -0.429445 0.040199
v 1.099254 -0.482982 -0.191513
v 0.287802 -0.530105 -0.002734
v 0.112467 -0.419050 0.329833
v 0.527757 -0.425463 -0.209799
v 0.129291 -0.428065 -0.343777
v 0.910735 -0.373797 -0.364307
v 1.426702 -0.186731 0.160432
v 1.407348 -0.244251 -0.191514
v 0.703088 -0.139608 0.540199
v 1.203575 -0.195257 0.401775
v 0.108594 -0.252776 0.527276
v 0.238782 -0.492666 -0.467577
v 1.203575 -0.195257 -0.364309
v 0.783525 -0.225330 -0.520166
v 1.246706 -0.065711 0.255924
v 0.448438 -0.020458 -0.407240
v 1.199702 -0.076107 -0.209799
v 0.807403 0.090598 0.247264
v 0.869590 0.200223 0.234215
v 0.367116 0.099124 0.151772
v 0.267584 0.081683 -0.168113
v 0.854407 0.146247 -0.244072
v 0.189165 -0.360373 -0.606088
v 0.327592 -0.337094 -0.529173
v 0.448305 -0.215223 -0.587428
v 0.324123 -0.073284 -0.540867
v 0.053451 -0.362568 -0.662040
v 0.213974 -0.487860 -0.536833
v 0.412950 -0.389730 -0.497314
v 0.093553 -0.424640 -0.633869
v 0.613251 -0.187088 -0.596416
v 0.367126 -0.010158 -0.486932
v 1.211223 0.134610 -0.122219
v 1.362570 0.097296 -0.012784
v 1.115780 0.234752 0.004070
v 0.864423 0.260174 0.041652
v 1.247707 0.115900 0.193751
v 1.006272 0.251319 0.174519
v 1.007550 0.261730 -0.121367
v 1.233154 -0.010858 -0.210076
v 0.731660 0.216415 0.042156
v 0.914766 0.220318 -0.215150
v 1.438189 -0.014597 -0.035050
v 1.275278 0.011789 0.257881
v 0.250791 -0.052034 0.594678
v 0.188012 0.026773 0.503084
v 0.417035 0.077268 0.469708
v 0.597562 0.118360 0.396866
v 0.650224 0.051085 0.466861
v 0.429165 0.156217 0.269127
v 0.545798 0.004124 0.542230
vt 0.0793 0.6045
vt 0.1673 0.5781
vt 0.1393 0.7097
vt 0.7794 0.9267
vt 0.7908 0.8390
vt 0.8909 0.9009
vt 0.0898 0.4919
vt 0.9375 0.5547
vt 0.8659 0.5232
vt 0.9244 0.4458
vt 0.8826 0.6934
vt 0.7099 0.8655
vt 0.2442 0.5494
vt 0.3141 0.6361
vt 0.2245 0.6901
vt 0.8046 0.4972
vt 0.7941 0.4449
vt 0.8371 0.3956
vt 0.7682 0.7545
vt 0.6866 0.7250
vt 0.7193 0.6218
vt 0.7160 0.9598
vt 0.2972 0.4707
vt 0.7545 0.4054
vt 0.7785 0.4401
vt 0.7476 0.4393
vt 0.7145 0.7882
vt 0.3327 0.8378
vt 0.3828 0.7245
vt 0.4155 0.9051
vt 0.2970 0.7689
vt 0.3146 0.7365
vt 0.5866 0.4329
vt 0.5785 0.4954
vt 0.5112 0.4429
vt 0.6210 0.6473
vt 0.5225 0.6704
vt 0.5446 0.5587
vt 0.5225 0.7131
vt 0.6015 0.7548
vt 0.5736 0.7822
vt 0.5238 0.7507
vt 0.4562 0.8808
vt 0.4351 0.7544
vt 0.4730 0.7850
vt 0.4887 0.8630
vt 0.4542 0.7024
vt 0.4752 0.7384
vt 0.6298 0.7311
vt 0.4340 0.6650
vt 0.4416 0.5613
vt 0.6564 0.5297
vt 0.3512 0.6313
vt 0.4874 0.5245
vt 0.4563 0.4331
vt 0.3278 0.6716
vt 0.4600 0.5565
vt 0.4101 0.4940
vt 0.6277 0.8140
vt 0.5986 0.8178
vt 0.5932 0.8890
vt 0.5675 0.8631
vt 0.6683 0.8104
vt 0.6504 0.5658
vt 0.7324 0.5637
vt 0.6596 0.5070
vt 0.6796 0.4822
vt 0.7203 0.5178
vt 0.7781 0.4939
vt 0.7564 0.4764
vt 0.2486 0.8247
vt 0.2593 0.7637
vt 0.3477 0.5110
vt 0.3592 0.5967
vt 0.3423 0.9502
vt 0.6311 0.9164
vt 0.8168 0.6403
vt 0.7525 0.5755
vt 0.1990 0.4528
vt 0.2280 0.9201
vt 0.2954 0.9940
vt 0.7883 0.6655
vt 0.8645 0.7748
vt 0.0176 0.7437
vt 0.1912 0.9929
vt 0.6824 0.4183
vt 0.3759 0.4096
vt 0.5608 0.3730
vt 0.7533 0.3928
vt 0.6494 0.4212
vt 0.6653 0.3490
vt 0.7420 0.4035
vt 0.7321 0.5863
vt 0.5293 0.7951
vt 0.3928 0.5648
vt 0.2704 0.7165
vt 0.1425 0.2324
vt 0.2332 0.1796
vt 0.2096 0.2880
vt 0.2964 0.1501
vt 0.2626 0.0961
vt 0.1136 0.3408
vt 0.8606 0.2047
vt 0.8947 0.3046
vt 0.8127 0.2607
vt 0.7614 0.1090
vt 0.3251 0.0984
vt 0.2664 0.3312
vt 0.2822 0.2208
vt 0.3357 0.2819
vt 0.7687 0.3034
vt 0.8133 0.3674
vt 0.7754 0.3512
vt 0.7044 0.0499
vt 0.7298 0.1799
vt 0.6639 0.1162
vt 0.3323 0.1650
vt 0.2810 0.4231
vt 0.7359 0.3732
vt 0.6574 0.0421
vt 0.3720 0.2260
vt 0.3690 0.1332
vt 0.4294 0.2440
vt 0.4062 0.3066
vt 0.3824 0.2956
vt 0.6480 0.2080
vt 0.6250 0.3174
vt 0.5607 0.2090
vt 0.0347 0.8433
vt 0.0681 0.8476
vt 0.0842 0.9069
vt 0.0535 0.9406
vt 0.1868 0.9260
vt 0.1649 0.9079
vt 0.1678 0.8452
vt 0.2003 0.8259
vt 0.1553 0.7936
vt 0.1863 0.7628
vt 0.6115 0.1036
vt 0.4883 0.2618
vt 0.4712 0.3552
vt 0.2062 0.4096
vt 0.4363 0.3463
vt 0.1202 0.9395
vt 0.1198 0.9801
vt 0.0508 0.7588
vt 0.0812 0.7895
vt 0.5971 0.0269
vt 0.6856 0.2315
vt 0.6866 0.2799
vt 0.6974 0.3153
vt 0.6444 0.3405
vt 0.7466 0.3153
vt 0.7339 0.3371
vt 0.3636 0.3209
vt 0.3423 0.3928
vt 0.3427 0.0483
vt 0.7644 0.3615
vt 0.2871 0.0147
vt 0.2351 0.0171
vt 0.1721 0.0887
vt 0.1135 0.8606
vt 0.1371 0.9980
vt 0.2069 0.9364
vt 0.0287 0.7497
vt 0.0075 0.8403
vt 0.0342 0.9511
vt 0.1010 0.9979
vt 0.2328 0.8200
vt 0.2091 0.7550
vt 0.3878 0.3501
vn -0.0298 -0.9761 -0.2149
vn -0.0256 -0.9505 0.3095
vn -0.2777 -0.9124 0.3008
vn -0.5115 -0.5856 0.6289
vn -0.6347 -0.7557 0.1614
vn 0.0022 -0.9988 -0.0481
vn -0.1108 -0.9643 -0.2405
vn -0.1942 -0.9114 -0.3627
vn -0.9120 0.1096 0.3952
vn -0.0815 -0.6760 0.7324
vn -0.2497 0.0187 0.9681
vn -0.2638 -0.5603 0.7851
vn -0.2895 -0.9034 -0.3162
vn -0.1176 -0.9793 -0.1647
vn 0.1022 -0.9813 -0.1629
vn -0.6294 -0.6046 -0.4881
vn -0.4415 0.1483 -0.8849
vn -0.1761 -0.6595 -0.7308
vn -0.4700 0.0771 0.8793
vn 0.1955 -0.3397 0.9199
vn -0.0562 -0.6642 -0.7454
vn -0.1613 -0.7941 -0.5860
vn -0.2968 -0.0205 -0.9547
vn -0.9037 0.0054 -0.4281
vn -0.2382 0.5912 0.7705
vn 0.1892 0.7978 0.5723
vn -0.4627 0.5891 0.6624
vn -0.1544 0.5747 0.8036
vn 0.0937 0.7758 0.6239
vn 0.0291 0.9469 -0.3201
vn 0.2409 0.9259 -0.2910
vn 0.0816 0.9943 0.0690
vn -0.1268 0.1952 -0.9725
vn 0.2133 0.6369 -0.7408
vn -0.0407 0.6848 -0.7276
vn -0.0125 0.7711 -0.6365
vn -0.4116 0.3948 -0.8214
vn -0.4168 0.6150 -0.6693
vn -0.1391 0.8714 -0.4703
vn -0.4974 0.3599 0.7893
vn 0.1015 0.7155 0.6912
vn -0.1092 0.8255 0.5538
vn -0.5051 0.5815 0.6377
vn 0.3161 0.9459 0.0731
vn 0.1685 0.9842 0.0545
vn -0.4066 0.4478 -0.7963
vn 0.6394 0.7674 0.0469
vn 0.4440 0.8612 0.2475
vn 0.0257 0.9610 0.2752
vn 0.3991 0.8423 0.3621
vn 0.1919 0.9033 0.3836
vn -0.9075 0.3769 -0.1854
vn -0.8093 0.5784 -0.1025
vn -0.8282 0.4905 -0.2712
vn -0.2970 -0.2069 -0.9322
vn -0.5407 0.1960 -0.8180
vn -0.0349 0.7060 -0.7073
vn 0.1044 0.5119 -0.8526
vn -0.0670 0.1360 -0.9884
vn -0.3184 -0.5057 -0.8018
vn -0.3598 -0.3252 -0.8745
vn -0.0888 0.4067 0.9092
vn 0.0291 0.5583 0.8291
vn 0.1297 -0.9096 0.3946
vn -0.0085 0.5761 -0.8173
vn -0.1316 0.8279 0.5451
vn 0.1461 0.9774 -0.1529
vn 0.2148 -0.6959 -0.6852
vn -0.0615 0.7197 -0.6915
vn -0.1112 0.4812 -0.8695
vn 0.0453 0.1572 -0.9865
vn -0.3415 0.9374 -0.0681
vn 0.2519 0.6896 0.6789
vn -0.0130 -0.9790 -0.2035
vn 0.2021 -0.9346 0.2927
vn -0.0029 -0.9549 0.2968
vn 0.5198 -0.5792 0.6279
vn 0.6498 -0.7447 0.1524
vn -0.0054 -0.9976 -0.0684
vn 0.0372 -0.9734 -0.2259
vn 0.1298 -0.9339 -0.3330
vn 0.9225 0.0944 0.3742
vn -0.0323 -0.5640 0.8251
vn 0.2272 -0.5814 0.7812
vn 0.2712 0.0527 0.9611
vn 0.1828 -0.9478 -0.2612
vn 0.1465 -0.9854 -0.0862
vn -0.0108 -0.9999 0.0111
vn 0.7001 -0.5124 -0.4972
vn 0.1504 -0.7380 -0.6577
vn 0.4664 0.2458 -0.8497
vn 0.4917 0.0887 0.8662
vn 0.2028 -0.6623 0.7213
vn 0.3327 -0.0540 -0.9415
vn 0.9119 0.1602 -0.3778
vn 0.3223 0.6829 0.6555
vn 0.5404 0.3464 0.7667
vn -0.0255 0.7851 0.6189
vn 0.1776 0.9355 0.3055
vn 0.3312 0.6675 0.6668
vn 0.2328 0.4872 -0.8417
vn 0.1740 0.8720 -0.4575
vn -0.1113 0.6933 -0.7120
vn -0.1676 0.6444 -0.7461
vn 0.1821 0.9172 -0.3543
vn 0.4829 0.6727 -0.5605
vn 0.4710 0.1651 -0.8665
vn 0.5553 0.1480 0.8183
vn 0.5159 0.6647 0.5403
vn 0.1500 0.8794 0.4518
vn -0.2870 0.5765 0.7650
vn -0.1757 0.9833 0.0464
vn -0.6697 0.7410 0.0484
vn 0.4891 0.4044 -0.7728
vn -0.4297 0.8982 0.0924
vn -0.0057 0.9940 -0.1091
vn -0.1198 -0.8859 0.4482
vn -0.0196 0.9998 -0.0074
vn 0.7226 0.6820 -0.1127
vn 0.9819 0.0825 -0.1701
vn 0.9775 0.0631 -0.2010
vn 0.2566 -0.1148 -0.9597
vn 0.3477 0.1935 -0.9174
vn 0.0344 -0.0352 -0.9988
vn 0.1354 0.8010 -0.5831
vn 0.2300 -0.5716 -0.7876
vn 0.3175 -0.4669 -0.8253
vn 0.1528 0.3923 0.9070
vn -0.0059 0.2997 0.9540
vn 0.0399 -0.8539 -0.5189
vn 0.3858 0.9224 -0.0171
vn -0.0481 0.8393 0.5415
usemtl Rubble03
s 1
f 1/1/1 12/2/2 13/3/3
f 2/4/4 15/5/5 13/6/3
f 1/1/1 17/7/6 12/2/2
f 1/8/1 19/9/7 17/10/6
f 1/8/1 16/11/8 19/9/7
f 2/4/4 22/12/9 15/5/5
f 3/13/10 24/14/11 14/15/12
f 4/16/13 27/17/14 20/18/15
f 5/19/16 28/20/17 21/21/18
f 2/4/4 25/22/19 22/12/9
f 3/13/10 26/23/20 24/14/11
f 46/24/21 44/25/22 39/26/23
f 5/19/16 23/27/24 28/20/17
f 6/28/25 34/29/26 30/30/27
f 34/29/26 6/28/25 66/31/28 65/32/29
f 8/33/30 37/34/31 31/35/32
f 9/36/33 38/37/34 32/38/35
f 59/39/36 57/40/37 50/41/38 56/42/39
f 61/43/40 35/44/41 55/45/42 54/46/43
f 35/44/41 58/47/44 53/48/45 55/45/42
f 33/49/46 38/37/34 9/36/33
f 38/37/34 11/50/47 37/51/31
f 38/37/34 37/51/31 32/38/35
f 32/52/35 37/34/31 8/33/30
f 37/51/31 11/50/47 36/53/48
f 37/34/31 36/54/48 31/35/32
f 31/35/32 36/54/48 7/55/49
f 36/53/48 11/50/47 34/29/26
f 36/53/48 34/29/26 65/32/29 67/56/50
f 7/55/49 36/54/48 67/57/50 63/58/51
f 57/40/37 60/59/52 51/60/53 50/41/38
f 58/47/44 59/39/36 56/42/39 53/48/45
f 60/59/52 61/61/40 54/62/43 51/60/53
f 23/27/24 10/63/54 33/49/46
f 23/27/24 33/49/46 28/20/17
f 28/20/17 33/49/46 9/36/33
f 29/64/55 9/36/33 32/38/35
f 47/65/56 48/66/57 43/67/58 42/68/59
f 45/69/60 47/65/56 42/68/59 40/70/61
f 6/28/25 24/71/11 68/72/62 66/31/28
f 24/14/11 26/23/20 62/73/63 68/74/62
f 25/75/19 6/28/25 30/30/27
f 25/22/19 30/76/27 22/12/9
f 22/12/9 30/76/27 10/63/54
f 28/20/17 9/36/33 29/64/55
f 28/20/17 29/64/55 21/21/18
f 21/77/18 29/78/55 4/16/13
f 44/25/22 45/69/60 40/70/61 39/26/23
f 18/79/64 26/23/20 3/13/10
f 24/71/11 6/28/25 25/75/19
f 24/71/11 25/75/19 14/80/12
f 14/80/12 25/75/19 2/81/4
f 22/12/9 10/63/54 23/27/24
f 22/12/9 23/27/24 15/5/5
f 15/5/5 23/27/24 5/19/16
f 16/82/8 5/19/16 21/21/18
f 16/11/8 21/77/18 19/9/7
f 19/9/7 21/77/18 4/16/13
f 19/9/7 4/16/13 20/18/15
f 19/9/7 20/18/15 17/10/6
f 17/7/6 18/79/64 12/2/2
f 12/2/2 18/79/64 3/13/10
f 15/5/5 5/19/16 16/83/8
f 15/5/5 16/83/8 13/6/3
f 13/3/3 16/84/8 1/1/1
f 12/2/2 3/13/10 14/15/12
f 12/2/2 14/15/12 13/3/3
f 13/85/3 14/80/12 2/81/4
f 40/70/61 42/68/59 39/26/23
f 42/68/59 43/67/58 39/26/23
f 39/26/23 43/67/58 41/86/65
f 26/23/20 127/87/66 62/73/63
f 31/35/32 102/88/67 8/33/30
f 111/89/68 20/18/15 46/24/21
f 48/66/57 49/90/69 41/86/65 43/67/58
f 32/52/35 8/33/30 49/90/69 48/66/57
f 49/90/69 107/91/70 41/86/65
f 39/26/23 41/86/65 108/92/71
f 27/17/14 4/16/13 45/69/60 44/25/22
f 4/16/13 29/78/55 47/65/56 45/69/60
f 29/93/55 32/52/35 48/66/57 47/65/56
f 20/18/15 27/17/14 44/25/22 46/24/21
f 51/60/53 52/94/72 50/41/38
f 52/94/72 53/48/45 56/42/39
f 52/94/72 56/42/39 50/41/38
f 55/45/42 53/48/45 52/94/72
f 55/45/42 52/94/72 54/46/43
f 54/62/43 52/94/72 51/60/53
f 10/63/54 30/76/27 61/61/40 60/59/52
f 11/50/47 38/37/34 59/39/36 58/47/44
f 33/49/46 10/63/54 60/59/52 57/40/37
f 34/29/26 11/50/47 58/47/44 35/44/41
f 30/30/27 34/29/26 35/44/41 61/43/40
f 38/37/34 33/49/46 57/40/37 59/39/36
f 63/58/51 67/57/50 64/95/73
f 67/56/50 65/32/29 64/96/73
f 64/96/73 65/32/29 66/31/28
f 62/73/63 63/58/51 64/95/73
f 62/73/63 64/95/73 68/74/62
f 68/72/62 64/96/73 66/31/28
f 69/97/74 79/98/75 78/99/76
f 70/100/77 79/98/75 81/101/78
f 69/97/74 78/99/76 83/102/79
f 69/103/74 83/104/79 85/105/80
f 69/103/74 85/105/80 82/106/81
f 70/100/77 81/101/78 88/107/82
f 71/108/83 80/109/84 90/110/85
f 72/111/86 86/112/87 93/113/88
f 73/114/89 87/115/90 94/116/91
f 70/100/77 88/107/82 91/117/92
f 71/108/83 90/110/85 92/118/93
f 111/89/68 46/24/21 108/92/71
f 111/89/68 108/92/71 104/119/94
f 73/114/89 94/116/91 89/120/95
f 74/121/96 96/122/97 99/123/98
f 99/123/98 129/124/99 130/125/100 74/121/96
f 86/112/87 20/18/15 111/89/68
f 75/126/101 97/127/102 103/128/103
f 123/129/104 120/130/105 114/131/106 121/132/107
f 125/133/108 118/134/109 119/135/110 100/136/111
f 100/136/111 119/135/110 117/137/112 122/138/113
f 98/139/114 75/126/101 103/128/103
f 103/128/103 102/88/67 77/140/115
f 103/128/103 97/127/102 102/88/67
f 20/18/15 83/104/79 17/10/6
f 102/88/67 101/141/116 77/140/115
f 84/142/117 18/79/64 83/102/79
f 18/79/64 92/118/93 26/23/20
f 101/141/116 99/123/98 77/140/115
f 101/141/116 131/143/118 129/124/99 99/123/98
f 8/33/30 107/91/70 49/90/69
f 121/132/107 114/131/106 115/144/119 124/145/120
f 122/146/113 117/147/112 120/130/105 123/129/104
f 124/145/120 115/144/119 118/134/109 125/133/108
f 89/120/95 98/139/114 76/148/121
f 89/120/95 94/116/91 98/139/114
f 94/116/91 75/126/101 98/139/114
f 95/149/122 97/127/102 75/126/101
f 112/150/123 106/151/124 107/91/70 113/152/125
f 110/153/126 105/154/127 106/151/124 112/150/123
f 62/73/63 127/87/66 63/58/51
f 127/87/66 7/55/49 63/58/51
f 7/55/49 101/141/116 31/35/32
f 74/121/96 130/125/100 132/155/128 90/110/85
f 7/55/49 131/143/118 101/141/116
f 90/110/85 132/155/128 126/156/129 92/118/93
f 91/117/92 96/122/97 74/121/96
f 91/117/92 88/107/82 96/122/97
f 88/107/82 76/157/121 96/122/97
f 94/116/91 95/149/122 75/126/101
f 94/116/91 87/115/90 95/149/122
f 87/115/90 72/111/86 95/149/122
f 109/158/130 104/119/94 105/154/127
f 127/87/66 131/143/118 7/55/49
f 126/156/129 127/87/66 26/23/20
f 26/23/20 92/118/93 126/156/129
f 18/79/64 84/142/117 92/118/93
f 84/142/117 71/108/83 92/118/93
f 90/110/85 91/117/92 74/121/96
f 90/110/85 80/109/84 91/117/92
f 80/109/84 70/100/77 91/117/92
f 88/107/82 89/159/95 76/157/121
f 88/107/82 81/101/78 89/159/95
f 81/101/78 73/160/89 89/159/95
f 82/106/81 87/115/90 73/114/89
f 82/106/81 85/105/80 87/115/90
f 85/105/80 72/111/86 87/115/90
f 85/105/80 86/112/87 72/111/86
f 85/105/80 83/104/79 86/112/87
f 108/92/71 46/24/21 39/26/23
f 20/18/15 86/112/87 83/104/79
f 83/102/79 78/99/76 84/142/117
f 78/99/76 71/108/83 84/142/117
f 81/101/78 82/161/81 73/160/89
f 81/101/78 79/98/75 82/161/81
f 79/98/75 69/97/74 82/161/81
f 78/99/76 80/109/84 71/108/83
f 78/99/76 79/98/75 80/109/84
f 79/98/75 70/100/77 80/109/84
f 105/154/127 104/119/94 106/151/124
f 106/151/124 104/119/94 107/91/70
f 83/102/79 18/79/64 17/7/6
f 108/92/71 41/86/65 104/119/94
f 41/86/65 107/91/70 104/119/94
f 113/152/125 107/91/70 8/33/30
f 8/33/30 97/127/102 113/152/125
f 102/88/67 97/127/102 8/33/30
f 31/35/32 101/141/116 102/88/67
f 93/113/88 109/158/130 110/153/126 72/111/86
f 72/111/86 110/153/126 112/150/123 95/149/122
f 95/149/122 112/150/123 113/152/125 97/127/102
f 86/112/87 111/89/68 109/158/130 93/113/88
f 115/144/119 114/131/106 116/162/131
f 116/162/131 120/130/105 117/147/112
f 116/162/131 114/131/106 120/130/105
f 119/135/110 116/162/131 117/137/112
f 119/135/110 118/134/109 116/162/131
f 118/134/109 115/144/119 116/162/131
f 76/163/121 124/145/120 125/133/108 96/164/97
f 77/165/115 122/146/113 123/129/104 103/166/103
f 98/167/114 121/132/107 124/145/120 76/168/121
f 99/169/98 100/136/111 122/138/113 77/170/115
f 96/164/97 125/133/108 100/136/111 99/169/98
f 103/166/103 123/129/104 121/132/107 98/167/114
f 127/87/66 128/171/132 131/143/118
f 131/143/118 128/171/132 129/124/99
f 128/171/132 130/125/100 129/124/99
f 126/156/129 128/171/132 127/87/66
f 126/156/129 132/155/128 128/171/132
f 132/155/128 130/125/100 128/171/132
f 109/158/130 111/89/68 104/119/94
f 110/153/126 109/158/130 105/154/127
