# Blender v2.79 (sub 0) OBJ File: 'Mines.blend'
# www.blender.org
mtllib Sharft_20c_Right.mtl
g Sharft_20c_Right
v 0.000000 2.507921 -0.000000
v 0.000000 -0.006532 -1.086259
v 0.000000 0.006532 -0.366267
v 0.000000 0.026018 -1.360368
v 0.000000 0.235273 -1.473018
v 0.000000 1.725286 -1.413096
v 0.000000 0.787882 -1.413096
v 0.000000 2.487947 0.333038
v 0.000000 2.527895 -1.098019
v 0.000000 2.468147 -1.350104
v 0.000000 2.247933 -1.413096
v 0.000000 2.247933 1.413096
v 0.000000 2.468148 1.350104
v 0.000000 2.527896 1.098019
v 0.000000 0.787883 1.413096
v 0.000000 1.725286 1.413096
v 0.000000 2.487947 -0.333038
v 0.000000 0.235274 1.473019
v 0.000000 0.026018 1.360368
v 0.000000 0.006532 0.366268
v 0.000000 -0.006532 1.086260
v 0.000000 0.000000 -0.000000
v -2.512244 0.007073 -0.344179
v -2.265992 -0.005991 -1.020750
v -2.523609 2.488488 -0.312954
v -2.154208 2.248475 -1.327876
v -3.013060 2.528437 1.031800
v -3.099277 2.468688 1.268683
v -2.172242 0.026559 -1.278328
v -2.133713 0.235814 -1.384185
v -2.154208 0.788423 -1.327876
v -2.154208 1.725827 -1.327876
v -3.120823 1.725828 1.327876
v -3.120823 0.788423 1.327876
v -3.141317 0.235815 1.384185
v -3.102788 0.026559 1.278327
v -3.120823 2.248475 1.327876
v -2.751421 2.488488 0.312954
v -2.175753 2.468688 -1.268683
v -2.261971 2.528436 -1.031800
v -3.009038 -0.005991 1.020751
v -2.762786 0.007073 0.344179
v -2.637515 2.508462 -0.000000
v -2.637515 0.000541 -0.000000
v -0.460499 2.277895 1.473019
v -0.525100 2.425525 1.350104
v -0.935661 2.445324 0.333038
v -0.430537 2.445324 0.333038
v -0.525100 2.527895 1.098019
v -0.841099 2.527895 1.098019
v -1.409281 0.004954 -1.086259
v -1.409281 0.004954 -0.380367
v -1.816973 0.059221 -0.366267
v -0.525100 0.777895 1.473019
v -0.426956 1.767908 1.413096
v -1.949757 0.019937 -1.043960
v -0.841099 0.777895 1.473019
v -0.939242 1.767908 1.413096
v -0.430537 0.019937 -0.366267
v -0.525100 -0.011031 -1.086260
v -0.841099 -0.011031 -1.086260
v -0.935661 0.019937 -0.366267
v -0.905701 2.277895 1.473019
v -0.392316 0.235273 1.473019
v -0.973884 0.235273 1.473019
v -0.841099 2.425525 1.350104
v -0.430537 0.026300 1.360368
v -0.935661 0.026300 1.360368
v -1.816973 0.026300 -1.360368
v -1.409281 0.026300 -1.420292
v -1.885155 2.205312 -1.413096
v -1.885155 0.265235 -1.413095
v -1.351086 0.265235 -1.413095
v -1.415688 2.205312 -1.413096
v -1.816973 2.340581 -0.333038
v -1.409281 2.485273 -0.348019
v -1.895142 0.735273 -1.473019
v -1.415688 0.745261 -1.315866
v -1.473883 1.777895 -1.375789
v -1.826960 1.735273 -1.473018
v -1.881573 2.428198 -1.241426
v -1.473883 2.413614 -1.296072
v -1.409281 2.485273 -1.098019
v -1.949757 2.445324 -1.053077
v -1.949757 2.445324 1.053077
v -1.409281 2.485273 1.098019
v -1.473883 2.413614 1.296072
v -1.881573 2.428198 1.241426
v -1.826960 1.735273 1.473019
v -1.473883 1.777895 1.375790
v -1.415688 0.745261 1.315866
v -1.895142 0.735273 1.473019
v -1.409281 2.485273 0.348019
v -1.816973 2.340581 0.333038
v -0.935661 0.026300 -1.360368
v -0.430537 0.026300 -1.360368
v -1.415688 2.205312 1.413096
v -1.351086 0.265235 1.413096
v -1.885155 0.265235 1.413096
v -1.885155 2.205312 1.413096
v -0.841099 2.425525 -1.350104
v -0.973884 0.235273 -1.473018
v -0.392316 0.235273 -1.473018
v -0.905701 2.277894 -1.473019
v -1.409281 0.026300 1.420292
v -1.816973 0.026300 1.360368
v -0.939242 1.767908 -1.413095
v -0.841099 0.777895 -1.473018
v -0.935661 0.019937 0.366268
v -0.841099 -0.011030 1.086260
v -0.525100 -0.011030 1.086260
v -0.430537 0.019937 0.366268
v -0.426956 1.767908 -1.413095
v -1.949757 0.019937 1.043961
v -0.525100 0.777895 -1.473018
v -0.841099 2.527895 -1.098019
v -0.525100 2.527895 -1.098019
v -0.430537 2.445324 -0.333038
v -0.935661 2.445324 -0.333038
v -0.525100 2.425525 -1.350104
v -0.460499 2.277894 -1.473019
v -1.816973 0.059221 0.366268
v -1.409281 0.004955 0.380368
v -1.409281 0.004955 1.086260
v -0.922471 2.486610 0.000000
v -1.409281 2.506585 -0.000000
v -0.443727 2.486610 0.000000
v -1.856057 2.356618 -0.000000
v -0.443727 0.004453 0.000000
v -1.409281 -0.003038 -0.000000
v -0.922471 0.004453 0.000000
v -1.856057 0.053206 -0.000000
vt 0.650322 0.475726
vt 0.643497 0.680069
vt 0.564441 0.683607
vt 0.558249 0.473437
vt 0.363135 0.758093
vt 0.446936 0.757998
vt 0.431387 0.885744
vt 0.378933 0.885365
vt 0.015638 0.066671
vt 0.192077 0.062862
vt 0.214008 0.175772
vt 0.056580 0.179236
vt 0.649722 0.859567
vt 0.731390 0.841843
vt 0.732284 0.927436
vt 0.650133 0.911851
vt 0.816056 0.847402
vt 0.816821 0.920282
vt 0.559963 0.934330
vt 0.560667 0.838350
vt 0.848382 0.856942
vt 0.848643 0.909867
vt 0.520464 0.927697
vt 0.521316 0.843505
vt 0.363240 0.236656
vt 0.442853 0.236677
vt 0.445007 0.297637
vt 0.361034 0.297592
vt 0.527278 0.039775
vt 0.569484 0.045502
vt 0.566599 0.124417
vt 0.517035 0.133209
vt 0.360876 0.463309
vt 0.282007 0.473087
vt 0.282095 0.417334
vt 0.376694 0.417339
vt 0.282275 0.299840
vt 0.282371 0.236634
vt 0.191904 0.410364
vt 0.213997 0.297470
vt 0.214153 0.463064
vt 0.207557 0.236617
vt 0.077294 0.236616
vt 0.444906 0.463428
vt 0.429209 0.417414
vt 0.431027 0.931133
vt 0.378253 0.930639
vt 0.098137 0.293832
vt 0.724615 0.040959
vt 0.745963 0.130189
vt 0.648576 0.125308
vt 0.660497 0.044274
vt 0.729712 0.001472
vt 0.649875 0.003820
vt 0.733472 0.296662
vt 0.647828 0.285806
vt 0.638557 0.213375
vt 0.728204 0.211908
vt 0.580551 0.004341
vt 0.636234 0.325871
vt 0.567366 0.329944
vt 0.569769 0.283484
vt 0.093944 0.651317
vt 0.213145 0.647980
vt 0.207145 0.702968
vt 0.074917 0.703097
vt 0.577966 0.206042
vt 0.136506 0.530211
vt 0.190894 0.527336
vt 0.365117 0.702467
vt 0.362769 0.646860
vt 0.446552 0.646391
vt 0.444776 0.702199
vt 0.849059 0.477679
vt 0.851615 0.681617
vt 0.804428 0.682191
vt 0.810946 0.474883
vt 0.056988 0.756076
vt 0.213366 0.757872
vt 0.192443 0.878764
vt 0.013787 0.875990
vt 0.725545 0.691225
vt 0.723735 0.475199
vt 0.523774 0.294051
vt 0.517553 0.331831
vt 0.519356 0.000608
vt 0.283731 0.885550
vt 0.272287 0.920729
vt 0.204072 0.910372
vt 0.377679 0.519550
vt 0.284090 0.645223
vt 0.282470 0.520016
vt 0.733014 0.752037
vt 0.644747 0.762198
vt 0.284826 0.702732
vt 0.000175 0.023436
vt 0.214256 0.010190
vt 0.270826 0.484892
vt 0.376692 0.474296
vt 0.742865 0.329101
vt 0.284437 0.760233
vt 0.805738 0.761608
vt 0.845880 0.750499
vt 0.518699 0.206900
vt 0.202669 0.495579
vt 0.563812 0.774372
vt 0.139022 0.406565
vt 0.523440 0.763944
vt 0.523630 0.694913
vt 0.000175 0.917167
vt 0.361066 0.175717
vt 0.376794 0.055970
vt 0.429311 0.055925
vt 0.445041 0.175717
vt 0.429439 0.473437
vt 0.430114 0.518806
vt 0.154998 0.449603
vt 0.814195 0.000543
vt 0.820874 0.040167
vt 0.806504 0.297687
vt 0.795950 0.329563
vt 0.798353 0.130593
vt 0.813890 0.212957
vt 0.445036 0.009917
vt 0.360999 0.009989
vt 0.282303 0.173430
vt 0.282124 0.000175
vt 0.282198 0.055928
vt 0.519415 0.479726
vt 0.516679 0.175724
vt 0.516659 0.055898
vt 0.153174 0.490520
vt 0.886586 0.133542
vt 0.886587 0.040030
vt 0.516685 0.236699
vt 0.516642 0.297672
vt 0.813524 0.997093
vt 0.851945 0.997514
vt 0.519065 0.885707
vt 0.518902 0.757801
vt 0.883866 0.333136
vt 0.883554 0.294590
vt 0.886442 0.000175
vt 0.516684 0.009962
vt 0.518504 0.646083
vt 0.517761 0.518226
vt 0.885412 0.207043
vt 0.726269 0.998748
vt 0.518948 0.701940
vt 0.653022 0.999823
vt 0.516551 0.417491
vt 0.519065 0.928985
vt 0.516550 0.463425
vt 0.520124 0.999693
vt 0.559841 0.999825
vt 0.517456 0.474965
vn 0.0926 -0.0007 -0.9957
vn -0.0609 -0.0058 -0.9981
vn 0.0027 0.1081 -0.9941
vn 0.0548 0.1703 -0.9839
vn -0.0157 -0.9998 -0.0151
vn 0.0306 -0.9995 -0.0068
vn 0.0204 -0.9918 -0.1258
vn 0.0156 -0.9895 -0.1439
vn -0.0205 0.9994 -0.0296
vn 0.0066 0.9999 -0.0137
vn 0.0319 0.9995 0.0032
vn -0.0478 0.9988 0.0067
vn 0.0874 -0.0349 -0.9956
vn 0.0691 0.0419 -0.9967
vn -0.0333 0.0223 -0.9992
vn -0.0286 -0.0359 -0.9989
vn 0.0618 -0.2703 -0.9608
vn -0.0307 -0.2365 -0.9712
vn -0.0192 0.2273 -0.9736
vn 0.0661 0.1464 -0.9870
vn 0.0409 -0.7956 -0.6044
vn -0.0006 -0.7893 -0.6140
vn -0.0014 0.8235 -0.5673
vn 0.0057 0.8073 -0.5901
vn -0.0117 0.9999 -0.0000
vn 0.0100 1.0000 -0.0000
vn 0.0077 1.0000 -0.0002
vn -0.0059 1.0000 0.0030
vn 0.2337 0.1978 0.9520
vn 0.1062 0.1053 0.9888
vn 0.0897 -0.0058 0.9960
vn 0.3930 -0.0033 0.9195
vn 0.0057 0.8073 0.5901
vn 0.0359 0.7120 0.7012
vn 0.0251 0.9994 0.0222
vn 0.0022 0.9991 0.0430
vn 0.0441 0.9990 -0.0005
vn 0.0525 0.9986 -0.0000
vn -0.0108 0.9999 0.0061
vn 0.0207 0.9997 -0.0126
vn 0.0693 0.7530 0.6544
vn 0.0252 0.9997 -0.0063
vn -0.0643 0.9978 -0.0147
vn -0.0014 0.8235 0.5673
vn 0.0013 0.9989 0.0470
vn -0.0739 0.9971 -0.0163
vn 0.0661 0.1464 0.9870
vn 0.0874 -0.0349 0.9956
vn -0.0175 -0.0286 0.9994
vn 0.0451 0.0414 0.9981
vn 0.0618 -0.2703 0.9608
vn 0.0441 -0.2600 0.9646
vn -0.0441 0.0255 0.9987
vn 0.0691 0.0419 0.9967
vn 0.0688 -0.7995 0.5966
vn -0.0102 -0.8294 0.5585
vn 0.1024 -0.2648 0.9589
vn -0.2080 -0.9773 -0.0402
vn 0.0451 -0.9985 -0.0295
vn 0.0554 -0.9983 -0.0185
vn -0.1813 -0.9825 -0.0424
vn 0.0809 -0.0103 0.9967
vn -0.2165 -0.9756 -0.0374
vn -0.0729 -0.9971 0.0218
vn -0.0312 -0.9995 0.0000
vn -0.0157 -0.9998 0.0151
vn 0.0306 -0.9995 0.0068
vn 0.0357 -0.9994 0.0000
vn -0.0221 -0.7596 -0.6500
vn 0.0183 -0.8213 -0.5701
vn 0.0103 -0.2797 -0.9600
vn 0.0488 -0.2642 -0.9632
vn -0.1382 -0.9903 0.0112
vn 0.0758 -0.9971 0.0020
vn 0.0041 -0.9983 -0.0580
vn -0.0791 -0.9935 -0.0818
vn -0.0640 -0.0117 -0.9979
vn 0.1022 -0.0293 -0.9943
vn 0.1732 -0.2891 0.9415
vn -0.1194 -0.8597 0.4967
vn 0.0478 0.8871 0.4592
vn 0.0743 -0.9897 -0.1222
vn 0.0688 -0.7995 -0.5966
vn 0.0156 -0.9895 0.1439
vn 0.1147 -0.9934 0.0043
vn 0.0743 -0.9897 0.1222
vn -0.0441 0.0255 -0.9987
vn -0.0175 -0.0286 -0.9994
vn 0.1334 -0.9911 0.0000
vn 0.0211 0.7415 -0.6706
vn 0.0396 0.7673 -0.6401
vn 0.0409 -0.7956 0.6044
vn 0.1147 -0.9934 -0.0043
vn 0.0441 -0.2600 -0.9646
vn 0.4017 -0.0253 0.9154
vn 0.0451 0.0414 -0.9981
vn -0.0609 0.9981 -0.0082
vn 0.0359 0.7120 -0.7012
vn -0.0059 1.0000 -0.0030
vn 0.0022 0.9991 -0.0430
vn 0.0013 0.9989 -0.0470
vn 0.0077 1.0000 0.0002
vn -0.0006 -0.7893 0.6140
vn 0.0204 -0.9918 0.1258
vn -0.0192 0.2273 0.9736
vn -0.0307 -0.2365 0.9712
vn -0.0286 -0.0359 0.9989
vn -0.0333 0.0223 0.9992
vn 0.0441 0.9990 0.0005
vn 0.0251 0.9994 -0.0222
vn 0.0149 0.9999 0.0004
vn 0.0025 0.9989 -0.0474
vn -0.0641 -0.0448 0.9969
vn -0.0334 0.2143 0.9762
vn 0.0204 0.9998 -0.0000
vn 0.0149 0.9999 -0.0004
vn -0.0576 -0.2004 -0.9780
vn -0.0037 -0.7711 -0.6367
vn 0.0423 -0.9926 -0.1139
vn 0.0587 -0.9983 -0.0052
vn -0.0037 -0.7711 0.6367
vn -0.0576 -0.2004 0.9780
vn -0.0024 0.8246 0.5657
vn -0.0024 0.8246 -0.5657
vn 0.0587 -0.9983 0.0052
vn 0.0423 -0.9926 0.1139
vn -0.0633 0.0114 0.9979
vn -0.0633 0.0114 -0.9979
vn 0.0729 -0.9973 0.0000
vn -0.0641 -0.0448 -0.9969
vn 0.0025 0.9989 0.0474
vn -0.0334 0.2143 -0.9762
usemtl Sharft_20c_Right
s 1
f 34/1/1 92/2/2 99/3/3 35/4/4
f 47/5/5 48/6/6 49/7/7 50/8/8
f 41/9/9 114/10/10 122/11/11 42/12/12
f 57/13/13 58/14/14 55/15/15 54/16/16
f 63/17/17 45/18/18 55/15/15 58/14/14
f 64/19/19 65/20/20 57/13/13 54/16/16
f 66/21/21 46/22/22 45/18/18 63/17/17
f 65/20/20 64/19/19 67/23/23 68/24/24
f 131/25/25 129/26/26 59/27/27 62/28/28
f 30/29/29 72/30/30 77/31/31 31/32/32
f 95/33/33 70/34/34 51/35/35 61/36/36
f 61/36/36 51/35/35 52/37/37 62/28/28
f 131/25/25 62/28/28 52/37/37 130/38/38
f 56/39/39 53/40/40 52/37/37 51/35/35
f 70/34/34 69/41/41 56/39/39 51/35/35
f 132/42/42 130/38/38 52/37/37 53/40/40
f 42/12/12 122/11/11 132/42/42 44/43/43
f 96/44/44 95/33/33 61/36/36 60/45/45
f 50/8/8 49/7/7 46/46/22 66/47/21
f 62/28/28 59/27/27 60/45/45 61/36/36
f 44/43/43 132/42/42 53/40/40 23/48/46
f 102/49/47 108/50/48 78/51/49 73/52/50
f 95/53/33 102/49/47 73/52/50 70/54/34
f 104/55/51 74/56/52 79/57/53 107/58/54
f 73/52/50 72/30/30 69/59/41 70/54/34
f 82/60/55 81/61/56 71/62/57 74/56/52
f 25/63/58 75/64/59 128/65/60 43/66/61
f 71/62/57 80/67/62 79/57/53 74/56/52
f 40/68/63 84/69/64 75/64/59 25/63/58
f 125/70/65 119/71/66 118/72/67 127/73/68
f 28/74/69 88/75/70 100/76/71 37/77/72
f 38/78/73 94/79/74 85/80/75 27/81/76
f 37/77/72 100/76/71 89/82/77 33/83/78
f 26/84/79 71/62/57 81/61/56 39/85/80
f 29/86/81 69/59/41 72/30/30 30/29/29
f 85/80/75 86/87/82 87/88/83 88/89/70
f 116/90/84 119/71/66 76/91/85 83/92/86
f 89/82/77 90/93/87 91/94/88 92/2/2
f 125/70/65 126/95/89 76/91/85 119/71/66
f 36/96/90 106/97/91 114/10/10 41/9/9
f 84/69/64 83/92/86 76/91/85 75/64/59
f 116/90/84 83/92/86 82/98/55 101/99/92
f 73/52/50 78/51/49 77/31/31 72/30/30
f 107/58/54 79/57/53 78/51/49 108/50/48
f 101/100/92 82/60/55 74/56/52 104/55/51
f 128/65/60 126/95/89 93/101/93 94/79/74
f 128/65/60 75/64/59 76/91/85 126/95/89
f 66/21/21 63/17/17 97/102/94 87/103/83
f 80/67/62 77/31/31 78/51/49 79/57/53
f 58/14/14 57/13/13 91/94/88 90/93/87
f 31/32/32 77/31/31 80/67/62 32/104/95
f 84/69/64 81/105/56 82/98/55 83/92/86
f 98/106/96 99/3/3 92/2/2 91/94/88
f 50/8/8 66/47/21 87/88/83 86/87/82
f 85/80/75 94/79/74 93/101/93 86/87/82
f 125/70/65 47/5/5 93/101/93 126/95/89
f 50/8/8 86/87/82 93/101/93 47/5/5
f 33/83/78 89/82/77 92/2/2 34/1/1
f 23/48/46 53/40/40 56/39/39 24/107/97
f 125/70/65 127/73/68 48/6/6 47/5/5
f 100/76/71 97/102/94 90/93/87 89/82/77
f 87/103/83 97/102/94 100/76/71 88/75/70
f 98/106/96 105/108/98 106/109/91 99/3/3
f 63/17/17 58/14/14 90/93/87 97/102/94
f 68/24/24 105/108/98 98/106/96 65/20/20
f 65/20/20 98/106/96 91/94/88 57/13/13
f 27/81/76 85/80/75 88/89/70 28/110/69
f 109/111/99 110/112/100 111/113/101 112/114/102
f 116/90/84 101/99/92 120/115/103 117/116/104
f 24/107/97 56/39/39 69/41/41 29/117/81
f 102/49/47 95/53/33 96/118/44 103/119/105
f 101/100/92 104/55/51 121/120/106 120/121/103
f 103/119/105 115/122/107 108/50/48 102/49/47
f 104/55/51 107/58/54 113/123/108 121/120/106
f 67/124/23 111/113/101 110/112/100 68/125/24
f 132/42/42 122/11/11 123/126/109 130/38/38
f 108/50/48 115/122/107 113/123/108 107/58/54
f 105/127/98 124/128/110 114/10/10 106/97/91
f 114/10/10 124/128/110 123/126/109 122/11/11
f 131/25/25 130/38/38 123/126/109 109/111/99
f 110/112/100 109/111/99 123/126/109 124/128/110
f 35/4/4 99/3/3 106/109/91 36/129/90
f 68/125/24 110/112/100 124/128/110 105/127/98
f 131/25/25 109/111/99 112/114/102 129/26/26
f 32/104/95 80/67/62 71/62/57 26/84/79
f 119/71/66 116/90/84 117/116/104 118/72/67
f 43/66/61 128/65/60 94/79/74 38/78/73
f 20/130/111 112/114/102 111/113/101 21/131/112
f 39/132/80 81/105/56 84/69/64 40/68/63
f 7/133/113 115/122/107 103/119/105 5/134/114
f 22/135/115 129/26/26 112/114/102 20/130/111
f 3/136/116 59/27/27 129/26/26 22/135/115
f 12/137/117 45/18/18 46/22/22 13/138/118
f 14/139/119 49/7/7 48/6/6 8/140/120
f 10/141/121 120/121/103 121/120/106 11/142/122
f 5/134/114 103/119/105 96/118/44 4/143/123
f 21/131/112 111/113/101 67/124/23 19/144/124
f 17/145/125 118/72/67 117/116/104 9/146/126
f 6/147/127 113/123/108 115/122/107 7/133/113
f 16/148/128 55/15/15 45/18/18 12/137/117
f 1/149/129 127/73/68 118/72/67 17/145/125
f 15/150/130 54/16/16 55/15/15 16/148/128
f 2/151/131 60/45/45 59/27/27 3/136/116
f 13/152/118 46/46/22 49/7/7 14/139/119
f 4/153/123 96/44/44 60/45/45 2/151/131
f 19/154/124 67/23/23 64/19/19 18/155/132
f 11/142/122 121/120/106 113/123/108 6/147/127
f 8/140/120 48/6/6 127/73/68 1/149/129
f 9/146/126 117/116/104 120/115/103 10/156/121
f 18/155/132 64/19/19 54/16/16 15/150/130
