# Blender v2.78 (sub 0) OBJ File: 'Mines.blend'
# www.blender.org
mtllib Shovel.mtl
g Shovel
v -1.950218 0.612097 -0.011784
v -1.945708 0.612097 -0.010887
v -1.941885 0.000000 -0.008332
v -1.954728 0.000000 0.010888
v -1.958551 0.000000 0.008333
v -1.938434 0.000000 0.000000
v -1.939331 0.000000 0.004510
v -1.941885 0.000000 0.008333
v -1.941885 0.612097 0.008333
v -1.945708 0.000000 0.010888
v -1.945708 0.612097 0.010888
v -1.950218 0.000000 0.011785
v -1.950218 0.612097 0.011785
v -1.954728 0.612097 0.010888
v -1.939331 0.000000 -0.004509
v -1.945708 0.000000 -0.010887
v -1.958551 0.000000 -0.008332
v -1.958551 0.612097 -0.008332
v -1.954728 0.000000 -0.010887
v -1.954728 0.612097 -0.010887
v -1.946345 0.694255 -0.012514
v -1.954630 0.694255 -0.012514
v -1.946345 0.694255 0.012515
v -1.954630 0.694255 0.012515
v -1.942159 0.704034 0.025018
v -1.942159 0.704034 -0.025017
v -1.931509 0.711400 -0.085587
v -1.939489 0.612097 -0.008332
v -1.944412 0.612097 -0.010887
v -1.936200 0.612097 -0.004509
v -1.935045 0.612097 0.000000
v -1.936200 0.612097 0.004510
v -1.939489 0.612097 0.008333
v -1.960947 0.612097 0.008333
v -1.956024 0.612097 0.010888
v -1.964236 0.612097 0.004510
v -1.965391 0.612097 0.000000
v -1.964236 0.612097 -0.004509
v -1.960947 0.612097 -0.008332
v -1.955807 0.694255 0.012515
v -1.945140 0.694255 0.012515
v -1.945140 0.694255 -0.012514
v -1.955807 0.694255 -0.012514
v -1.941885 0.533888 -0.008332
v -1.945708 0.533888 -0.010887
v -1.939331 0.533888 -0.004509
v -1.938434 0.533888 0.000000
v -1.939331 0.533888 0.004510
v -1.958551 0.533888 0.008333
v -1.954728 0.533888 0.010888
v -1.961105 0.533888 0.004510
v -1.962002 0.533888 0.000000
v -1.961105 0.533888 -0.004509
v -1.958551 0.533888 -0.008332
v -1.939489 0.536500 -0.008332
v -1.944412 0.536500 -0.010887
v -1.964236 0.536500 -0.004509
v -1.935045 0.536500 0.000000
v -1.936200 0.536500 -0.004509
v -1.960947 0.536500 -0.008332
v -1.936200 0.536500 0.004510
v -1.939489 0.536500 0.008333
v -1.960947 0.536500 0.008333
v -1.956024 0.536500 0.010888
v -1.964236 0.536500 0.004510
v -1.965391 0.536500 0.000000
v -1.961105 0.000000 0.004510
v -1.962002 0.000000 0.000000
v -1.961105 0.000000 -0.004509
v -1.948072 0.711400 -0.085588
v -1.948072 0.711400 0.085588
v -1.931509 0.721180 -0.085587
v -1.931509 0.721180 0.085589
v -1.931509 0.711400 0.085589
v -1.939790 0.721180 -0.085587
v -1.950441 0.704034 -0.025017
v -1.950441 0.704034 0.025018
v -1.939790 0.721180 0.085588
v -1.937852 0.852568 -0.074383
v -1.946134 0.852568 -0.074383
v -1.948503 0.852568 -0.021742
v -1.956784 0.852568 -0.021742
v -1.956784 0.852568 0.021743
v -1.948503 0.852568 0.021743
v -1.946134 0.852568 0.074384
v -1.937852 0.852568 0.074384
v -1.930844 0.911874 -0.036864
v -1.939126 0.911874 -0.036864
v -1.927483 0.934906 -0.010775
v -1.935765 0.934906 -0.010775
v -1.935765 0.934906 0.010776
v -1.927483 0.934906 0.010776
v -1.939126 0.911874 0.036865
v -1.930844 0.911874 0.036865
v -1.950218 0.533888 -0.011784
v -1.941885 0.533888 0.008333
v -1.945708 0.533888 0.010888
v -1.950218 0.533888 0.011785
v -1.954728 0.533888 -0.010887
v -1.950218 0.000000 -0.011784
v -1.933722 0.910466 0.014031
v -1.933722 0.910466 -0.014031
v -1.941138 0.913858 0.013580
v -1.941138 0.913858 -0.013579
v -1.950218 0.000000 0.000000
v -1.938434 0.000000 0.000000
v -1.939331 0.000000 0.004510
v -1.941885 0.000000 0.008333
v -1.945708 0.000000 0.010888
v -1.950218 0.000000 0.011785
v -1.961105 0.000000 -0.004509
v -1.962002 0.000000 0.000000
v -1.958551 0.000000 -0.008332
v -1.954728 0.000000 -0.010887
v -1.946345 0.694255 -0.012514
v -1.946345 0.694255 -0.012514
v -1.946345 0.694255 -0.012514
v -1.954630 0.694255 -0.012514
v -1.954630 0.694255 -0.012514
v -1.954630 0.694255 -0.012514
v -1.954630 0.694255 -0.012514
v -1.960947 0.536500 -0.008332
v -1.960947 0.536500 -0.008332
v -1.960947 0.612097 -0.008332
v -1.955807 0.694255 0.012515
v -1.955807 0.694255 0.012515
v -1.955807 0.694255 0.012515
v -1.954630 0.694255 0.012515
v -1.954630 0.694255 0.012515
v -1.954630 0.694255 0.012515
v -1.958551 0.533888 -0.008332
v -1.958551 0.533888 -0.008332
v -1.958551 0.612097 -0.008332
v -1.961105 0.000000 0.004510
v -1.937852 0.852568 0.074384
v -1.937852 0.852568 0.074384
v -1.939790 0.721180 0.085588
v -1.939790 0.721180 0.085588
v -1.958551 0.000000 0.008333
v -1.955807 0.694255 -0.012514
v -1.955807 0.694255 -0.012514
v -1.946345 0.694255 0.012515
v -1.946345 0.694255 0.012515
v -1.946345 0.694255 0.012515
v -1.946345 0.694255 0.012515
v -1.946345 0.694255 0.012515
v -1.946134 0.852568 -0.074383
v -1.946134 0.852568 -0.074383
v -1.948072 0.711400 -0.085588
v -1.948072 0.711400 -0.085588
v -1.941885 0.612097 0.008333
v -1.944412 0.612097 -0.010887
v -1.945140 0.694255 -0.012514
v -1.945140 0.694255 -0.012514
v -1.945140 0.694255 -0.012514
v -1.945140 0.694255 0.012515
v -1.945140 0.694255 0.012515
v -1.956024 0.612097 0.010888
v -1.939489 0.612097 0.008333
v -1.954728 0.000000 0.010888
v -1.956024 0.536500 0.010888
v -1.939331 0.533888 -0.004509
v -1.941885 0.533888 -0.008332
v -1.938434 0.533888 0.000000
v -1.939331 0.533888 0.004510
v -1.961105 0.533888 0.004510
v -1.958551 0.533888 0.008333
v -1.962002 0.533888 0.000000
v -1.961105 0.533888 -0.004509
v -1.939489 0.536500 -0.008332
v -1.944412 0.536500 -0.010887
v -1.936200 0.536500 -0.004509
v -1.935045 0.536500 0.000000
v -1.935045 0.536500 0.000000
v -1.936200 0.536500 0.004510
v -1.939489 0.536500 0.008333
v -1.939489 0.536500 0.008333
v -1.964236 0.536500 0.004510
v -1.960947 0.536500 0.008333
v -1.965391 0.536500 0.000000
v -1.965391 0.536500 0.000000
v -1.964236 0.536500 -0.004509
v -1.945708 0.000000 -0.010887
v -1.941885 0.000000 -0.008332
v -1.939331 0.000000 -0.004509
v -1.931509 0.721180 0.085589
v -1.931509 0.721180 0.085589
v -1.931509 0.721180 -0.085587
v -1.931509 0.721180 -0.085587
v -1.931509 0.711400 -0.085587
v -1.931509 0.711400 -0.085587
v -1.931509 0.711400 0.085589
v -1.931509 0.711400 0.085589
v -1.939790 0.721180 -0.085587
v -1.939790 0.721180 -0.085587
v -1.942159 0.704034 0.025018
v -1.942159 0.704034 -0.025017
v -1.950441 0.704034 0.025018
v -1.950441 0.704034 -0.025017
v -1.937852 0.852568 -0.074383
v -1.937852 0.852568 -0.074383
v -1.946134 0.852568 0.074384
v -1.946134 0.852568 0.074384
v -1.939126 0.911874 0.036865
v -1.948072 0.711400 0.085588
v -1.948072 0.711400 0.085588
v -1.927483 0.934906 -0.010775
v -1.927483 0.934906 -0.010775
v -1.935765 0.934906 -0.010775
v -1.935765 0.934906 -0.010775
v -1.935765 0.934906 0.010776
v -1.935765 0.934906 0.010776
v -1.927483 0.934906 0.010776
v -1.927483 0.934906 0.010776
v -1.939126 0.911874 -0.036864
v -1.930844 0.911874 0.036865
v -1.930844 0.911874 -0.036864
v -1.941885 0.533888 0.008333
v -1.941885 0.533888 0.008333
v -1.950218 0.000000 -0.011784
vt 0.0503 0.7821
vt 0.0392 0.7821
vt 0.0392 0.5933
vt 0.0502 0.5933
vt 0.0840 0.7821
vt 0.0729 0.7820
vt 0.0729 0.5933
vt 0.0840 0.5933
vt 0.0281 0.7820
vt 0.0281 0.5933
vt 0.0614 0.7820
vt 0.0613 0.5933
vt 0.6030 0.2135
vt 0.5916 0.2135
vt 0.5895 0.0375
vt 0.6000 0.0368
vt 0.0951 0.7820
vt 0.0951 0.5933
vt 0.0618 0.7820
vt 0.0618 0.5933
vt 0.1989 0.7521
vt 0.1989 0.7410
vt 0.2268 0.7465
vt 0.0281 0.9804
vt 0.6318 0.2136
vt 0.6297 0.4122
vt 0.6262 0.4121
vt 0.6285 0.2136
vt 0.7625 0.9037
vt 0.7467 0.9035
vt 0.7467 -0.0016
vt 0.7625 -0.0015
vt 0.0480 0.9804
vt 0.6390 0.2142
vt 0.6332 0.2144
vt 0.6322 0.0281
vt 0.6379 0.0343
vt 0.9205 0.9051
vt 0.9047 0.9049
vt 0.9047 -0.0002
vt 0.9205 -0.0001
vt 0.6152 0.2136
vt 0.6116 0.0353
vt 0.0829 0.9804
vt 0.6263 0.4150
vt 0.5646 0.4168
vt 0.5645 0.4139
vt 0.6262 0.4121
vt 0.0480 0.9804
vt 0.0630 0.9804
vt 0.5678 0.2142
vt 0.5621 0.2144
vt 0.5610 0.0281
vt 0.5668 0.0343
vt 0.8257 0.9042
vt 0.8099 0.9041
vt 0.8099 -0.0011
vt 0.8257 -0.0009
vt 0.5610 0.4141
vt 0.5645 0.4139
vt 0.2324 0.0673
vt 0.2330 0.0868
vt 0.0467 0.0840
vt 0.0436 0.0404
vt 0.2324 0.0673
vt 0.1998 0.0443
vt 0.3221 0.0457
vt 0.2892 0.0664
vt 0.0467 0.0840
vt 0.0271 0.1113
vt 0.0034 0.0874
vt 0.4759 0.0268
vt 0.4729 0.0483
vt 0.5112 0.0927
vt 0.5095 0.1178
vt 0.4882 0.1163
vt 0.0055 0.1130
vt 0.0467 0.0840
vt 0.2330 0.0868
vt 0.2076 0.4453
vt 0.0727 0.4544
vt 0.6628 0.2135
vt 0.6741 0.2134
vt 0.6975 0.4122
vt 0.6357 0.4140
vt 0.5678 0.2142
vt 0.5802 0.2138
vt 0.5645 0.4139
vt 0.6863 0.2136
vt 0.6996 0.2137
vt 0.6975 0.4122
vt 0.6262 0.4121
vt 0.6513 0.2138
vt 0.6285 0.2136
vt 0.6262 0.4121
vt 0.6390 0.2142
vt 0.7783 0.9038
vt 0.7783 -0.0014
vt 0.6252 0.0334
vt 0.7029 0.2137
vt 0.7010 0.4123
vt 0.6975 0.4122
vt 0.6996 0.2137
vt 0.6252 0.0334
vt 0.6282 0.0270
vt 0.6976 0.4152
vt 0.6358 0.4170
vt 0.6357 0.4140
vt 0.6975 0.4122
vt 0.6322 0.4142
vt 0.6357 0.4140
vt 0.6741 0.0270
vt 0.6866 0.0272
vt 0.6828 0.0353
vt 0.6712 0.0368
vt 0.6154 0.0272
vt 0.6273 0.0260
vt 0.6478 0.0265
vt 0.6609 0.0265
vt 0.6607 0.0375
vt 0.6501 0.0365
vt 0.5897 0.0265
vt 0.6029 0.0270
vt 0.6000 0.0368
vt 0.5895 0.0375
vt 0.6866 0.0272
vt 0.6985 0.0261
vt 0.6964 0.0334
vt 0.6828 0.0353
vt 0.5643 0.0250
vt 0.5766 0.0265
vt 0.5789 0.0365
vt 0.5668 0.0343
vt 0.6354 0.0250
vt 0.6379 0.0343
vt 0.6154 0.0272
vt 0.6116 0.0353
vt 0.5789 0.0365
vt 0.5895 0.0375
vt 0.9363 0.9052
vt 0.9363 0.0000
vt 0.8889 0.9048
vt 0.8731 0.9047
vt 0.8731 -0.0005
vt 0.8889 -0.0004
vt 0.6712 0.0368
vt 0.5668 0.0343
vt 0.6964 0.0334
vt 0.6994 0.0270
vt 0.6607 0.0375
vt 0.7941 0.9040
vt 0.7941 -0.0012
vt 0.9521 0.9054
vt 0.9521 0.0002
vt 0.6501 0.0365
vt 0.6607 0.0375
vt 0.6379 0.0343
vt 0.1998 0.0443
vt 0.2033 0.0241
vt 0.3196 0.0266
vt 0.3221 0.0457
vt 0.0436 0.0404
vt 0.0414 0.0180
vt 0.2884 0.0856
vt 0.2892 0.0664
vt 0.4729 0.0483
vt 0.4686 0.0897
vt 0.2884 0.0856
vt 0.4686 0.0897
vt 0.4472 0.4540
vt 0.3120 0.4454
vt 0.7487 0.9544
vt 0.5993 0.9972
vt 0.5905 0.6399
vt 0.7195 0.6365
vt 0.0414 0.0180
vt 0.0475 -0.0001
vt 0.4686 0.0897
vt 0.4706 0.0091
vt 0.4759 0.0268
vt 0.2300 0.5868
vt 0.2882 0.5875
vt 0.2800 0.6326
vt 0.2376 0.6312
vt 0.4472 0.4540
vt 0.4626 0.4688
vt 0.3541 0.6062
vt 0.3416 0.5896
vt 0.3416 0.5896
vt 0.4684 0.4556
vt 0.4472 0.4540
vt 0.4777 0.9972
vt 0.3283 0.9543
vt 0.3577 0.6361
vt 0.4866 0.6396
vt 0.0727 0.4544
vt 0.0510 0.4562
vt 0.2376 0.6312
vt 0.2326 0.6487
vt 0.1659 0.6040
vt 0.1782 0.5879
vt 0.2836 0.6522
vt 0.2800 0.6326
vt 0.2326 0.6487
vt 0.2376 0.6312
vt 0.2800 0.6326
vt 0.2836 0.6522
vt 0.0576 0.4691
vt 0.0727 0.4544
vt 0.5046 0.4962
vt 0.4488 0.4913
vt 0.5124 0.4350
vt 0.6284 0.4914
vt 0.5726 0.4962
vt 0.5648 0.4349
vt 0.1782 0.5879
vt 0.8573 0.9045
vt 0.8415 0.9044
vt 0.8415 -0.0008
vt 0.8573 -0.0007
vt 0.9837 0.9056
vt 0.9679 0.9055
vt 0.9679 0.0003
vt 0.9837 0.0005
vt 0.9995 0.9058
vt 0.9995 0.0006
vt 0.2031 0.7307
vt 0.2212 0.7744
vt 0.2110 0.7702
vt 0.2212 0.7186
vt 0.2323 0.7186
vt 0.2504 0.7307
vt 0.2547 0.7410
vt 0.2323 0.7744
vt 0.2504 0.7623
vt 0.2426 0.7702
vt 0.2110 0.7229
vt 0.2426 0.7229
vt 0.2547 0.7521
vt 0.2031 0.7623
vn 0.3546 -0.0062 0.9350
vn -0.0295 -0.0079 0.9995
vn 0.0000 0.0000 1.0000
vn 0.3827 0.0000 0.9239
vn -0.3832 -0.0089 -0.9236
vn -0.0295 -0.0079 -0.9995
vn 0.0000 0.0000 -1.0000
vn -0.3827 0.0000 -0.9239
vn -0.0979 -0.0098 0.9951
vn -0.3319 -0.0647 0.9411
vn 0.5556 -0.0059 0.8314
vn 0.6588 0.0000 0.7523
vn -0.9145 0.0344 0.4030
vn -0.9978 0.0477 -0.0460
vn -0.9687 0.0000 0.2481
vn -0.8867 0.0000 0.4623
vn -0.5555 -0.0077 -0.8314
vn -0.6588 0.0000 -0.7523
vn 0.0664 -0.0080 -0.9977
vn 0.3319 -0.0647 -0.9411
vn 0.0000 -1.0000 0.0000
vn 0.0303 -0.0161 0.9994
vn 0.0000 -0.0198 0.9998
vn 0.0000 -0.0099 0.9999
vn 0.9239 0.0000 0.3827
vn 0.7071 0.0000 0.7071
vn 0.5555 -0.0121 0.8314
vn 0.0000 -0.0248 0.9997
vn 0.0000 -0.0258 0.9997
vn -0.9239 0.0000 0.3827
vn -1.0000 0.0000 0.0000
vn -0.6244 -0.0001 0.7811
vn -0.5941 -0.0786 0.8005
vn 0.0397 -0.0126 -0.9991
vn 0.0000 1.0000 0.0000
vn 0.0699 -0.0121 0.9975
vn 0.0352 -0.0160 -0.9992
vn 0.0000 -0.0249 -0.9997
vn 0.0000 -0.0258 -0.9997
vn 0.6249 -0.1417 -0.7677
vn 0.7071 0.0000 -0.7071
vn 0.3827 0.0000 -0.9239
vn 0.0000 -0.0508 -0.9987
vn 0.0000 -0.9735 -0.2284
vn 0.9351 -0.3534 0.0239
vn 0.9774 -0.1678 0.1280
vn 0.9774 -0.1678 -0.1280
vn 0.9351 -0.3534 -0.0239
vn -0.0216 0.0367 -0.9991
vn -0.0253 0.0428 -0.9987
vn 0.9813 -0.1081 -0.1594
vn -0.0253 0.0428 0.9987
vn -0.9908 0.0002 -0.1356
vn -0.9982 -0.0075 -0.0599
vn -0.9896 0.1194 -0.0801
vn -0.9843 0.0949 -0.1484
vn 0.9977 0.0508 0.0460
vn 0.9145 0.0373 -0.4028
vn 0.9925 0.1160 -0.0388
vn 0.9937 0.1122 -0.0013
vn -0.7580 0.0073 -0.6522
vn -0.8908 0.0241 -0.4537
vn -0.9943 0.1061 0.0013
vn 0.6246 0.0018 -0.7809
vn 0.4606 -0.0068 -0.8876
vn 0.6126 0.0019 -0.7904
vn -0.9932 0.1099 0.0388
vn 0.8908 0.0269 0.4535
vn -0.4606 -0.0082 0.8875
vn -0.6126 -0.0019 0.7903
vn 0.7580 0.0097 0.6521
vn 1.0000 0.0000 0.0000
vn -0.4757 -0.1899 0.8589
vn 0.0000 -0.0198 -0.9998
vn 0.0000 -0.0099 -0.9999
vn 0.0000 -0.0508 0.9987
vn 0.6221 -0.7073 -0.3358
vn 0.6083 -0.6433 -0.4649
vn 0.6241 -0.7349 -0.2654
vn -0.6249 -0.1417 0.7677
vn 0.6220 -0.7073 0.3357
vn 0.6254 -0.7803 0.0000
vn 0.6240 -0.7349 0.2654
vn -0.6254 -0.7803 0.0000
vn -0.6221 -0.7073 0.3358
vn -0.6241 -0.7349 0.2654
vn 0.4757 -0.1899 -0.8589
vn 0.5941 -0.0786 -0.8005
vn -0.6083 -0.6433 -0.4648
vn -0.6220 -0.7073 -0.3357
vn -0.6240 -0.7349 -0.2654
vn 0.6083 -0.6433 0.4648
vn -0.6083 -0.6433 0.4648
vn -0.8867 0.0000 -0.4623
vn -0.9687 0.0000 -0.2481
vn -0.7071 0.0000 0.7071
vn -0.9239 0.0000 -0.3827
vn -0.7071 0.0000 -0.7071
vn 0.8867 0.0000 -0.4623
vn -0.7580 0.0000 -0.6522
vn 0.9687 0.0000 -0.2481
vn 0.9239 0.0000 -0.3827
vn -0.3827 0.0000 0.9239
vn 0.8867 0.0000 0.4623
vn 0.9687 0.0000 0.2481
vn 0.7580 0.0000 0.6522
vn 0.0000 0.9895 0.1444
vn 0.0000 0.9915 0.1297
vn 0.0000 0.9915 -0.1297
vn 0.0000 0.9895 -0.1444
vn 0.9813 -0.1081 0.1594
vn 0.0000 -0.9735 0.2284
vn -0.9982 -0.0075 0.0599
vn -0.9908 0.0002 0.1356
vn -0.9843 0.0949 0.1484
vn -0.9896 0.1194 0.0801
vn 0.9831 -0.0230 -0.1815
vn 0.9963 -0.0177 -0.0838
vn 0.9872 -0.1316 -0.0902
vn 0.9782 -0.1085 -0.1768
vn 0.0000 0.9622 0.2723
vn -0.0216 0.0367 0.9991
vn 0.0000 0.9622 -0.2723
vn -0.9659 0.2501 -0.0660
vn -0.9659 0.2501 0.0660
vn -0.9674 0.2511 0.0313
vn -0.9674 0.2511 -0.0313
vn 0.0000 0.5346 0.8451
vn 0.0000 0.6554 0.7553
vn 0.0000 0.6418 0.7668
vn -0.9572 0.2463 0.1517
vn -0.0487 0.0825 0.9954
vn 0.9963 -0.0177 0.0838
vn 0.9831 -0.0230 0.1815
vn 0.9782 -0.1085 0.1768
vn 0.9872 -0.1316 0.0902
vn -0.0487 0.0825 -0.9954
vn 0.0000 0.7497 -0.6618
vn 0.0000 0.6554 -0.7553
vn 0.0000 0.6418 -0.7668
vn 0.0000 0.7497 0.6618
vn 0.0000 0.5346 -0.8451
vn 0.9659 -0.2497 0.0678
vn 0.9574 -0.2470 0.1493
vn 0.9674 -0.2511 0.0313
vn 0.9574 -0.2470 -0.1493
vn 0.9659 -0.2497 -0.0678
vn 0.9674 -0.2511 -0.0313
vn -0.9572 0.2463 -0.1517
usemtl Shovel
s 1
f 11/1/1 13/2/2 98/3/3 97/4/4
f 20/5/5 1/6/6 95/7/7 99/8/8
f 13/2/2 14/9/9 50/10/10 98/3/3
f 151/11/11 11/1/1 97/4/4 218/12/12
f 36/13/13 37/14/14 180/15/15 178/16/16
f 133/17/17 20/5/5 99/8/8 131/18/18
f 1/6/6 2/19/19 45/20/20 95/7/7
f 69/21/21 17/22/21 105/23/21
f 14/9/9 13/2/2 128/24/22
f 14/25/9 128/26/22 125/27/23 35/28/24
f 165/29/25 218/30/12 108/31/26 107/32/25
f 11/1/1 151/11/11 143/33/27
f 33/34/28 9/35/29 219/36/3 177/37/3
f 51/38/30 168/39/31 112/40/31 134/41/30
f 34/42/32 36/13/13 178/16/16 179/43/33
f 20/5/5 133/17/17 118/44/34
f 129/45/35 119/46/35 140/47/35 40/48/35
f 13/2/2 11/1/1 144/49/36 128/24/22
f 2/19/19 1/6/6 118/44/34 115/50/37
f 124/51/38 18/52/39 54/53/7 122/54/7
f 45/55/20 163/56/40 184/57/41 183/58/42
f 22/59/43 18/52/39 124/51/38 43/60/43
f 1/6/6 20/5/5 118/44/34
f 117/61/44 120/62/44 150/63/44 191/64/44
f 116/65/45 197/66/46 25/67/47 142/68/48
f 70/69/49 194/70/50 190/71/7
f 142/68/48 25/67/47 187/72/51 192/73/51
f 74/74/3 186/75/3 138/76/52
f 194/70/50 188/77/7 190/71/7
f 149/78/53 121/79/54 82/80/55 147/81/56
f 31/82/57 30/83/58 154/84/59 156/85/60
f 39/86/61 38/87/62 141/88/63
f 28/89/64 29/90/65 153/91/66
f 37/14/14 36/13/13 126/92/67 141/88/63
f 32/93/68 31/82/57 156/85/60
f 34/42/32 158/94/69 127/95/70
f 30/83/58 28/89/64 153/91/66
f 38/87/62 37/14/14 141/88/63
f 159/96/71 32/93/68 156/85/60
f 36/13/13 34/42/32 127/95/70
f 47/97/72 165/29/25 107/32/25 106/98/72
f 158/94/69 34/42/32 179/43/33 161/99/73
f 2/100/19 115/101/37 155/102/74 152/103/75
f 14/25/9 35/28/24 64/104/3 50/105/10
f 21/106/35 145/107/35 157/108/35 42/109/35
f 23/110/76 9/35/29 33/34/28 41/111/76
f 46/112/77 44/113/78 170/114/78 172/115/79
f 167/116/80 50/117/10 161/99/73 179/43/33
f 48/118/81 164/119/82 173/120/82 175/121/83
f 52/122/84 166/123/85 65/124/86 181/125/84
f 163/126/40 45/127/20 171/128/87 55/129/88
f 132/130/89 53/131/90 182/132/91 123/133/89
f 164/119/82 46/112/77 172/115/79 173/120/82
f 53/131/90 52/122/84 181/125/84 182/132/91
f 96/134/92 48/118/81 175/121/83 176/135/92
f 166/123/85 49/136/93 63/137/93 65/124/86
f 29/90/65 28/89/64 55/129/88 171/128/87
f 37/14/14 38/87/62 57/138/94 66/139/95
f 167/140/80 51/38/30 134/41/30 139/141/96
f 169/142/97 131/143/18 113/144/98 111/145/97
f 28/89/64 30/83/58 59/146/99 55/129/88
f 38/87/62 39/86/61 60/147/100 57/138/94
f 2/100/19 152/103/75 56/148/7 45/149/20
f 30/83/58 31/82/57 174/150/101 59/146/99
f 162/151/102 47/97/72 106/98/72 185/152/102
f 50/153/10 167/140/80 139/141/96 160/154/103
f 31/82/57 32/93/68 61/155/104 58/156/105
f 168/39/31 169/142/97 111/145/97 112/40/31
f 163/56/40 162/151/102 185/152/102 184/57/41
f 32/93/68 159/96/71 62/157/106 61/155/104
f 26/158/107 199/159/108 198/160/109 196/161/110
f 197/66/46 116/65/45 27/162/111 189/163/111
f 24/164/112 146/165/112 193/166/112 71/167/112
f 130/168/113 206/169/114 203/170/115 83/171/116
f 137/172/117 77/173/118 84/174/119 135/175/120
f 199/159/108 26/158/107 72/176/121 195/177/121
f 205/178/122 74/74/3 138/76/52
f 196/161/110 198/160/109 78/179/123 73/180/123
f 104/181/124 103/182/125 211/183/126 210/184/127
f 202/185/128 136/186/128 216/187/129 204/188/130
f 103/182/125 93/189/131 211/183/126
f 205/178/122 138/76/52 86/190/132 85/191/132
f 76/192/133 75/193/134 201/194/135 81/195/136
f 194/70/50 70/69/49 148/196/137 200/197/137
f 77/173/118 76/192/133 81/195/136 84/174/119
f 121/79/54 130/168/113 83/171/116 82/80/55
f 209/198/138 207/199/138 217/200/139 215/201/140
f 213/202/141 212/203/141 204/188/130 216/187/129
f 208/204/35 90/205/35 91/206/35 214/207/35
f 79/208/142 80/209/142 215/201/140 217/200/139
f 102/210/143 87/211/144 89/212/145
f 94/213/146 101/214/147 92/215/148
f 88/216/149 104/181/124 210/184/127
f 101/214/147 102/210/143 89/212/145 92/215/148
f 99/217/8 95/218/7 220/219/7 114/220/8
f 97/221/4 98/222/3 110/223/3 109/224/4
f 131/143/18 99/217/8 114/220/8 113/144/98
f 218/225/12 97/221/4 109/224/4 108/226/26
f 95/218/7 45/55/20 183/58/42 220/219/7
f 98/222/3 50/153/10 160/154/103 110/223/3
f 84/174/119 81/195/136 102/210/143 101/214/147
f 135/175/120 84/174/119 101/214/147 94/213/146
f 81/195/136 201/194/135 87/211/144 102/210/143
f 82/80/55 83/171/116 103/182/125 104/181/124
f 83/171/116 203/170/115 93/189/131 103/182/125
f 147/81/56 82/80/55 104/181/124 88/216/149
f 17/22/21 19/227/21 105/23/21
f 5/228/21 67/229/21 105/23/21
f 16/230/21 3/231/21 105/23/21
f 6/232/21 7/233/21 105/23/21
f 4/234/21 5/228/21 105/23/21
f 10/235/21 12/236/21 105/23/21
f 19/227/21 100/237/21 105/23/21
f 3/231/21 15/238/21 105/23/21
f 7/233/21 8/239/21 105/23/21
f 15/238/21 6/232/21 105/23/21
f 67/229/21 68/240/21 105/23/21
f 100/237/21 16/230/21 105/23/21
f 12/236/21 4/234/21 105/23/21
f 8/239/21 10/235/21 105/23/21
f 68/240/21 69/21/21 105/23/21
